<svg width="1628" height="3855" viewBox="0 0 1628 3855" fill="none" xmlns="http://www.w3.org/2000/svg">
<g clip-path="url(#clip0_392_27)">
<rect width="1628" height="3855" fill="#5568A0"/>
<path fill-rule="evenodd" clip-rule="evenodd" d="M1118.33 779.492C1302.19 863.736 1526.63 861.54 1663.74 1002.5C1807.19 1149.99 1855.32 1348.16 1819.44 1500.3C1784.84 1646.99 1647.13 1749.96 1478.97 1785.96C1333.86 1817.03 1151.45 1671.86 994.097 1676.98C808.642 1683.02 709.522 1865.43 514.238 1817.37C308.487 1766.74 114.778 1602.03 4.16878 1433.38C-107.464 1263.17 -146.809 1062.61 -74.0326 920.411C-6.44277 788.345 217.467 800.662 363.236 731.79C479.811 676.711 542.482 548.326 693.328 557.856C843.591 567.348 969.936 711.497 1118.33 779.492Z" fill="#6474A2"/>
<rect y="1417" width="1628" height="409" fill="#516397"/>
</g>
<defs>
<clipPath id="clip0_392_27">
<rect width="1628" height="3855" fill="white"/>
</clipPath>
</defs>
</svg>
