<svg width="40" height="36" viewBox="0 0 40 36" fill="none" xmlns="http://www.w3.org/2000/svg">
<path d="M36.4531 1.3584H3.54999C2.42299 1.3584 1.50937 2.18066 1.50937 3.19496V32.8078C1.50937 33.8221 2.42299 34.6443 3.54999 34.6443H36.4531C37.5801 34.6443 38.4937 33.8221 38.4937 32.8078V3.19496C38.4937 2.18066 37.5801 1.3584 36.4531 1.3584Z" fill="#3D5A98"/>
<path d="M27.025 34.6414V21.7518H31.8313L32.55 16.7286H27.025V13.5224C27.025 12.0683 27.475 11.0755 29.7906 11.0755H32.7469V6.57551C31.3153 6.44148 29.8768 6.37763 28.4375 6.38426C24.1813 6.38426 21.25 8.71863 21.25 13.0246V16.7286H16.4438V21.7518H21.25V34.6414H27.025Z" fill="white"/>
</svg>
