<svg width="40" height="36" viewBox="0 0 40 36" fill="none" xmlns="http://www.w3.org/2000/svg">
<g clip-path="url(#clip0_292_137)">
<path d="M30.625 0H9.375C4.19733 0 0 3.7776 0 8.4375V27.5625C0 32.2224 4.19733 36 9.375 36H30.625C35.8027 36 40 32.2224 40 27.5625V8.4375C40 3.7776 35.8027 0 30.625 0Z" fill="url(#paint0_radial_292_137)"/>
<path d="M30.625 0H9.375C4.19733 0 0 3.7776 0 8.4375V27.5625C0 32.2224 4.19733 36 9.375 36H30.625C35.8027 36 40 32.2224 40 27.5625V8.4375C40 3.7776 35.8027 0 30.625 0Z" fill="url(#paint1_radial_292_137)"/>
<path d="M20.0014 3.9375C15.758 3.9375 15.2253 3.95423 13.5588 4.02244C11.8953 4.09106 10.7598 4.32802 9.76641 4.67578C8.73859 5.03494 7.86688 5.51545 6.99844 6.29733C6.12922 7.07906 5.59531 7.86361 5.195 8.78822C4.8075 9.68259 4.54391 10.7049 4.46906 12.2013C4.39453 13.7014 4.375 14.1809 4.375 18.0001C4.375 21.8194 4.39375 22.2972 4.46938 23.7971C4.54594 25.2942 4.80922 26.3161 5.19531 27.2102C5.59469 28.1353 6.12859 28.9198 6.99734 29.7014C7.86563 30.4837 8.73734 30.9653 9.76438 31.3245C10.7586 31.6723 11.8942 31.9092 13.5573 31.9778C15.2241 32.046 15.7563 32.0628 19.9995 32.0628C24.2434 32.0628 24.7744 32.046 26.4409 31.9778C28.1044 31.9092 29.2411 31.6723 30.2353 31.3245C31.2627 30.9653 32.1331 30.4837 33.0012 29.7014C33.8705 28.9198 34.4042 28.1353 34.8047 27.2107C35.1887 26.3161 35.4525 25.2939 35.5306 23.7974C35.6055 22.2975 35.625 21.8194 35.625 18.0001C35.625 14.1809 35.6055 13.7017 35.5306 12.2016C35.4525 10.7045 35.1887 9.68273 34.8047 8.78864C34.4042 7.86361 33.8705 7.07906 33.0012 6.29733C32.1322 5.51517 31.263 5.03466 30.2344 4.67592C29.2383 4.32802 28.1022 4.09092 26.4387 4.02244C24.772 3.95423 24.2414 3.9375 19.9966 3.9375H20.0014ZM18.5997 6.4717C19.0158 6.47114 19.48 6.4717 20.0014 6.4717C24.1734 6.4717 24.6678 6.4852 26.3153 6.55256C27.8387 6.61528 28.6656 6.84436 29.2164 7.03688C29.9456 7.29169 30.4655 7.59642 31.012 8.08875C31.5589 8.58094 31.8973 9.04964 32.1813 9.70594C32.3952 10.2009 32.65 10.9451 32.7194 12.3162C32.7942 13.7987 32.8105 14.2439 32.8105 17.9969C32.8105 21.7499 32.7942 22.1953 32.7194 23.6776C32.6497 25.0487 32.3952 25.7929 32.1813 26.288C31.8981 26.9443 31.5589 27.4116 31.012 27.9035C30.4652 28.3957 29.9459 28.7003 29.2164 28.9553C28.6663 29.1486 27.8387 29.3771 26.3153 29.4398C24.6681 29.5072 24.1734 29.5218 20.0014 29.5218C15.8292 29.5218 15.3347 29.5072 13.6877 29.4398C12.1642 29.3766 11.3373 29.1475 10.7861 28.955C10.057 28.7 9.53609 28.3954 8.98922 27.9032C8.44234 27.411 8.10391 26.9435 7.82 26.2869C7.60609 25.7917 7.35125 25.0476 7.28188 23.6765C7.20703 22.194 7.19203 21.7488 7.19203 17.9934C7.19203 14.2381 7.20703 13.7952 7.28188 12.3127C7.35156 10.9416 7.60609 10.1974 7.82 9.70172C8.10328 9.04542 8.44234 8.57672 8.98938 8.08453C9.53625 7.59234 10.057 7.28761 10.7862 7.03223C11.337 6.83888 12.1642 6.61036 13.6877 6.54736C15.1291 6.48872 15.6877 6.47114 18.5997 6.46819V6.4717ZM28.342 8.80664C27.3069 8.80664 26.467 9.5618 26.467 10.4936C26.467 11.4252 27.3069 12.1811 28.342 12.1811C29.3772 12.1811 30.217 11.4252 30.217 10.4936C30.217 9.56194 29.3772 8.80608 28.342 8.80608V8.80664ZM20.0014 10.7783C15.5702 10.7783 11.9773 14.0119 11.9773 18.0001C11.9773 21.9884 15.5702 25.2204 20.0014 25.2204C24.4328 25.2204 28.0244 21.9884 28.0244 18.0001C28.0244 14.012 24.4325 10.7783 20.0011 10.7783H20.0014ZM20.0014 13.3125C22.8778 13.3125 25.2098 15.4111 25.2098 18.0001C25.2098 20.5889 22.8778 22.6877 20.0014 22.6877C17.1248 22.6877 14.7931 20.5889 14.7931 18.0001C14.7931 15.4111 17.1248 13.3125 20.0014 13.3125Z" fill="white"/>
</g>
<defs>
<radialGradient id="paint0_radial_292_137" cx="0" cy="0" r="1" gradientUnits="userSpaceOnUse" gradientTransform="translate(10.625 38.7727) rotate(-90) scale(35.6787 36.8711)">
<stop stop-color="#FFDD55"/>
<stop offset="0.1" stop-color="#FFDD55"/>
<stop offset="0.5" stop-color="#FF543E"/>
<stop offset="1" stop-color="#C837AB"/>
</radialGradient>
<radialGradient id="paint1_radial_292_137" cx="0" cy="0" r="1" gradientUnits="userSpaceOnUse" gradientTransform="translate(-6.70016 2.59327) rotate(77.4612) scale(16.0205 72.7172)">
<stop stop-color="#3771C8"/>
<stop offset="0.128" stop-color="#3771C8"/>
<stop offset="1" stop-color="#6600FF" stop-opacity="0"/>
</radialGradient>
<clipPath id="clip0_292_137">
<rect width="40" height="36" fill="white"/>
</clipPath>
</defs>
</svg>
