<svg width="40" height="36" viewBox="0 0 40 36" fill="none" xmlns="http://www.w3.org/2000/svg">
<g clip-path="url(#clip0_292_128)">
<path d="M30.625 0H9.375C4.19733 0 0 3.7776 0 8.4375V27.5625C0 32.2224 4.19733 36 9.375 36H30.625C35.8027 36 40 32.2224 40 27.5625V8.4375C40 3.7776 35.8027 0 30.625 0Z" fill="white"/>
<path d="M30.625 0H9.375C4.19733 0 0 3.7776 0 8.4375V27.5625C0 32.2224 4.19733 36 9.375 36H30.625C35.8027 36 40 32.2224 40 27.5625V8.4375C40 3.7776 35.8027 0 30.625 0Z" fill="#0A66C2"/>
<path d="M28.8617 30.612H33.4352C33.6009 30.612 33.7598 30.5527 33.877 30.4473C33.9942 30.3418 34.0601 30.1988 34.0602 30.0496L34.0625 21.3531C34.0625 16.8076 32.9742 13.3138 27.0722 13.3138C24.8286 13.2387 22.7128 14.2796 21.5711 16.0177C21.5655 16.0262 21.557 16.0328 21.5469 16.0364C21.5368 16.0401 21.5256 16.0407 21.5151 16.0382C21.5045 16.0356 21.4952 16.03 21.4885 16.0222C21.4819 16.0145 21.4782 16.0049 21.4781 15.9951V14.2959C21.4781 14.1468 21.4123 14.0037 21.2951 13.8982C21.1779 13.7927 21.0189 13.7334 20.8531 13.7334H16.513C16.3472 13.7334 16.1882 13.7927 16.071 13.8982C15.9538 14.0037 15.888 14.1468 15.888 14.2959V30.0487C15.888 30.1979 15.9538 30.341 16.071 30.4465C16.1882 30.552 16.3472 30.6112 16.513 30.6112H21.0861C21.2519 30.6112 21.4108 30.552 21.528 30.4465C21.6452 30.341 21.7111 30.1979 21.7111 30.0487V22.2619C21.7111 20.0602 22.1752 17.9279 25.2081 17.9279C28.198 17.9279 28.2367 20.4473 28.2367 22.4045V30.0495C28.2367 30.1986 28.3026 30.3417 28.4198 30.4472C28.537 30.5527 28.696 30.612 28.8617 30.612ZM5.9375 8.38519C5.9375 10.0536 7.46359 11.4263 9.3175 11.4263C11.1709 11.4262 12.6961 10.0526 12.6961 8.38448C12.6958 6.71639 11.1705 5.34375 9.31687 5.34375C7.46281 5.34375 5.9375 6.71681 5.9375 8.38519ZM7.02484 30.612H11.6041C11.7698 30.612 11.9288 30.5527 12.046 30.4472C12.1632 30.3417 12.2291 30.1986 12.2291 30.0495V14.2959C12.2291 14.1468 12.1632 14.0037 12.046 13.8982C11.9288 13.7927 11.7698 13.7334 11.6041 13.7334H7.02484C6.85908 13.7334 6.70011 13.7927 6.5829 13.8982C6.46569 14.0037 6.39984 14.1468 6.39984 14.2959V30.0495C6.39984 30.1986 6.46569 30.3417 6.5829 30.4472C6.70011 30.5527 6.85908 30.612 7.02484 30.612Z" fill="white"/>
</g>
<defs>
<clipPath id="clip0_292_128">
<rect width="40" height="36" fill="white"/>
</clipPath>
</defs>
</svg>
