<svg width="201" height="30" viewBox="0 0 201 30" fill="none" xmlns="http://www.w3.org/2000/svg">
<mask id="path-1-outside-1_114_30" maskUnits="userSpaceOnUse" x="-5" y="2" width="205" height="31" fill="black">
<rect fill="white" x="-5" y="2" width="205" height="31"/>
<path d="M0.7 15C0.7 13.6267 1.00667 12.4 1.62 11.32C2.24667 10.2267 3.09333 9.38 4.16 8.78C5.24 8.16667 6.44667 7.86 7.78 7.86C9.34 7.86 10.7067 8.26 11.88 9.06C13.0533 9.86 13.8733 10.9667 14.34 12.38H11.12C10.8 11.7133 10.3467 11.2133 9.76 10.88C9.18667 10.5467 8.52 10.38 7.76 10.38C6.94667 10.38 6.22 10.5733 5.58 10.96C4.95333 11.3333 4.46 11.8667 4.1 12.56C3.75333 13.2533 3.58 14.0667 3.58 15C3.58 15.92 3.75333 16.7333 4.1 17.44C4.46 18.1333 4.95333 18.6733 5.58 19.06C6.22 19.4333 6.94667 19.62 7.76 19.62C8.52 19.62 9.18667 19.4533 9.76 19.12C10.3467 18.7733 10.8 18.2667 11.12 17.6H14.34C13.8733 19.0267 13.0533 20.14 11.88 20.94C10.72 21.7267 9.35333 22.12 7.78 22.12C6.44667 22.12 5.24 21.82 4.16 21.22C3.09333 20.6067 2.24667 19.76 1.62 18.68C1.00667 17.6 0.7 16.3733 0.7 15ZM19.0116 16.42C19.0116 15.3 19.2316 14.3067 19.6716 13.44C20.1249 12.5733 20.7316 11.9067 21.4916 11.44C22.2649 10.9733 23.1249 10.74 24.0716 10.74C24.8982 10.74 25.6182 10.9067 26.2316 11.24C26.8582 11.5733 27.3582 11.9933 27.7316 12.5V10.92H30.5516V22H27.7316V20.38C27.3716 20.9 26.8716 21.3333 26.2316 21.68C25.6049 22.0133 24.8782 22.18 24.0516 22.18C23.1182 22.18 22.2649 21.94 21.4916 21.46C20.7316 20.98 20.1249 20.3067 19.6716 19.44C19.2316 18.56 19.0116 17.5533 19.0116 16.42ZM27.7316 16.46C27.7316 15.78 27.5982 15.2 27.3316 14.72C27.0649 14.2267 26.7049 13.8533 26.2516 13.6C25.7982 13.3333 25.3116 13.2 24.7916 13.2C24.2716 13.2 23.7916 13.3267 23.3516 13.58C22.9116 13.8333 22.5516 14.2067 22.2716 14.7C22.0049 15.18 21.8716 15.7533 21.8716 16.42C21.8716 17.0867 22.0049 17.6733 22.2716 18.18C22.5516 18.6733 22.9116 19.0533 23.3516 19.32C23.8049 19.5867 24.2849 19.72 24.7916 19.72C25.3116 19.72 25.7982 19.5933 26.2516 19.34C26.7049 19.0733 27.0649 18.7 27.3316 18.22C27.5982 17.7267 27.7316 17.14 27.7316 16.46ZM39.0863 12.64C39.4463 12.0533 39.9129 11.5933 40.4863 11.26C41.0729 10.9267 41.7396 10.76 42.4863 10.76V13.7H41.7463C40.8663 13.7 40.1996 13.9067 39.7463 14.32C39.3063 14.7333 39.0863 15.4533 39.0863 16.48V22H36.2863V10.92H39.0863V12.64ZM57.6722 16.22C57.6722 16.62 57.6455 16.98 57.5922 17.3H49.4922C49.5589 18.1 49.8389 18.7267 50.3322 19.18C50.8255 19.6333 51.4322 19.86 52.1522 19.86C53.1922 19.86 53.9322 19.4133 54.3722 18.52H57.3922C57.0722 19.5867 56.4589 20.4667 55.5522 21.16C54.6455 21.84 53.5322 22.18 52.2122 22.18C51.1455 22.18 50.1855 21.9467 49.3322 21.48C48.4922 21 47.8322 20.3267 47.3522 19.46C46.8855 18.5933 46.6522 17.5933 46.6522 16.46C46.6522 15.3133 46.8855 14.3067 47.3522 13.44C47.8189 12.5733 48.4722 11.9067 49.3122 11.44C50.1522 10.9733 51.1189 10.74 52.2122 10.74C53.2655 10.74 54.2055 10.9667 55.0322 11.42C55.8722 11.8733 56.5189 12.52 56.9722 13.36C57.4389 14.1867 57.6722 15.14 57.6722 16.22ZM54.7722 15.42C54.7589 14.7 54.4989 14.1267 53.9922 13.7C53.4855 13.26 52.8655 13.04 52.1322 13.04C51.4389 13.04 50.8522 13.2533 50.3722 13.68C49.9055 14.0933 49.6189 14.6733 49.5122 15.42H54.7722ZM73.0159 16.22C73.0159 16.62 72.9893 16.98 72.9359 17.3H64.8359C64.9026 18.1 65.1826 18.7267 65.6759 19.18C66.1693 19.6333 66.7759 19.86 67.4959 19.86C68.5359 19.86 69.2759 19.4133 69.7159 18.52H72.7359C72.4159 19.5867 71.8026 20.4667 70.8959 21.16C69.9893 21.84 68.8759 22.18 67.5559 22.18C66.4893 22.18 65.5293 21.9467 64.6759 21.48C63.8359 21 63.1759 20.3267 62.6959 19.46C62.2293 18.5933 61.9959 17.5933 61.9959 16.46C61.9959 15.3133 62.2293 14.3067 62.6959 13.44C63.1626 12.5733 63.8159 11.9067 64.6559 11.44C65.4959 10.9733 66.4626 10.74 67.5559 10.74C68.6093 10.74 69.5493 10.9667 70.3759 11.42C71.2159 11.8733 71.8626 12.52 72.3159 13.36C72.7826 14.1867 73.0159 15.14 73.0159 16.22ZM70.1159 15.42C70.1026 14.7 69.8426 14.1267 69.3359 13.7C68.8293 13.26 68.2093 13.04 67.4759 13.04C66.7826 13.04 66.1959 13.2533 65.7159 13.68C65.2493 14.0933 64.9626 14.6733 64.8559 15.42H70.1159ZM80.8597 12.64C81.2197 12.0533 81.6864 11.5933 82.2597 11.26C82.8464 10.9267 83.513 10.76 84.2597 10.76V13.7H83.5197C82.6397 13.7 81.973 13.9067 81.5197 14.32C81.0797 14.7333 80.8597 15.4533 80.8597 16.48V22H78.0597V10.92H80.8597V12.64ZM88.4656 15C88.4656 13.6267 88.7723 12.4 89.3856 11.32C90.0123 10.2267 90.859 9.38 91.9256 8.78C93.0056 8.16667 94.2123 7.86 95.5456 7.86C97.1056 7.86 98.4723 8.26 99.6456 9.06C100.819 9.86 101.639 10.9667 102.106 12.38H98.8856C98.5656 11.7133 98.1123 11.2133 97.5256 10.88C96.9523 10.5467 96.2856 10.38 95.5256 10.38C94.7123 10.38 93.9856 10.5733 93.3456 10.96C92.719 11.3333 92.2256 11.8667 91.8656 12.56C91.519 13.2533 91.3456 14.0667 91.3456 15C91.3456 15.92 91.519 16.7333 91.8656 17.44C92.2256 18.1333 92.719 18.6733 93.3456 19.06C93.9856 19.4333 94.7123 19.62 95.5256 19.62C96.2856 19.62 96.9523 19.4533 97.5256 19.12C98.1123 18.7733 98.5656 18.2667 98.8856 17.6H102.106C101.639 19.0267 100.819 20.14 99.6456 20.94C98.4856 21.7267 97.119 22.12 95.5456 22.12C94.2123 22.12 93.0056 21.82 91.9256 21.22C90.859 20.6067 90.0123 19.76 89.3856 18.68C88.7723 17.6 88.4656 16.3733 88.4656 15ZM106.777 16.42C106.777 15.3 106.997 14.3067 107.437 13.44C107.891 12.5733 108.497 11.9067 109.257 11.44C110.031 10.9733 110.891 10.74 111.837 10.74C112.664 10.74 113.384 10.9067 113.997 11.24C114.624 11.5733 115.124 11.9933 115.497 12.5V10.92H118.317V22H115.497V20.38C115.137 20.9 114.637 21.3333 113.997 21.68C113.371 22.0133 112.644 22.18 111.817 22.18C110.884 22.18 110.031 21.94 109.257 21.46C108.497 20.98 107.891 20.3067 107.437 19.44C106.997 18.56 106.777 17.5533 106.777 16.42ZM115.497 16.46C115.497 15.78 115.364 15.2 115.097 14.72C114.831 14.2267 114.471 13.8533 114.017 13.6C113.564 13.3333 113.077 13.2 112.557 13.2C112.037 13.2 111.557 13.3267 111.117 13.58C110.677 13.8333 110.317 14.2067 110.037 14.7C109.771 15.18 109.637 15.7533 109.637 16.42C109.637 17.0867 109.771 17.6733 110.037 18.18C110.317 18.6733 110.677 19.0533 111.117 19.32C111.571 19.5867 112.051 19.72 112.557 19.72C113.077 19.72 113.564 19.5933 114.017 19.34C114.471 19.0733 114.831 18.7 115.097 18.22C115.364 17.7267 115.497 17.14 115.497 16.46ZM127.312 13.22V18.58C127.312 18.9533 127.399 19.2267 127.572 19.4C127.759 19.56 128.065 19.64 128.492 19.64H129.792V22H128.032C125.672 22 124.492 20.8533 124.492 18.56V13.22H123.172V10.92H124.492V8.18H127.312V10.92H129.792V13.22H127.312ZM134.086 16.42C134.086 15.3 134.306 14.3067 134.746 13.44C135.199 12.5733 135.806 11.9067 136.566 11.44C137.339 10.9733 138.199 10.74 139.146 10.74C139.972 10.74 140.692 10.9067 141.306 11.24C141.932 11.5733 142.432 11.9933 142.806 12.5V10.92H145.626V22H142.806V20.38C142.446 20.9 141.946 21.3333 141.306 21.68C140.679 22.0133 139.952 22.18 139.126 22.18C138.192 22.18 137.339 21.94 136.566 21.46C135.806 20.98 135.199 20.3067 134.746 19.44C134.306 18.56 134.086 17.5533 134.086 16.42ZM142.806 16.46C142.806 15.78 142.672 15.2 142.406 14.72C142.139 14.2267 141.779 13.8533 141.326 13.6C140.872 13.3333 140.386 13.2 139.866 13.2C139.346 13.2 138.866 13.3267 138.426 13.58C137.986 13.8333 137.626 14.2067 137.346 14.7C137.079 15.18 136.946 15.7533 136.946 16.42C136.946 17.0867 137.079 17.6733 137.346 18.18C137.626 18.6733 137.986 19.0533 138.426 19.32C138.879 19.5867 139.359 19.72 139.866 19.72C140.386 19.72 140.872 19.5933 141.326 19.34C141.779 19.0733 142.139 18.7 142.406 18.22C142.672 17.7267 142.806 17.14 142.806 16.46ZM154.16 7.2V22H151.36V7.2H154.16ZM170.527 10.92L163.667 27.24H160.687L163.087 21.72L158.647 10.92H161.787L164.647 18.66L167.547 10.92H170.527ZM179.276 22.18C178.37 22.18 177.556 22.02 176.836 21.7C176.116 21.3667 175.543 20.92 175.116 20.36C174.703 19.8 174.476 19.18 174.436 18.5H177.256C177.31 18.9267 177.516 19.28 177.876 19.56C178.25 19.84 178.71 19.98 179.256 19.98C179.79 19.98 180.203 19.8733 180.496 19.66C180.803 19.4467 180.956 19.1733 180.956 18.84C180.956 18.48 180.77 18.2133 180.396 18.04C180.036 17.8533 179.456 17.6533 178.656 17.44C177.83 17.24 177.15 17.0333 176.616 16.82C176.096 16.6067 175.643 16.28 175.256 15.84C174.883 15.4 174.696 14.8067 174.696 14.06C174.696 13.4467 174.87 12.8867 175.216 12.38C175.576 11.8733 176.083 11.4733 176.736 11.18C177.403 10.8867 178.183 10.74 179.076 10.74C180.396 10.74 181.45 11.0733 182.236 11.74C183.023 12.3933 183.456 13.28 183.536 14.4H180.856C180.816 13.96 180.63 13.6133 180.296 13.36C179.976 13.0933 179.543 12.96 178.996 12.96C178.49 12.96 178.096 13.0533 177.816 13.24C177.55 13.4267 177.416 13.6867 177.416 14.02C177.416 14.3933 177.603 14.68 177.976 14.88C178.35 15.0667 178.93 15.26 179.716 15.46C180.516 15.66 181.176 15.8667 181.696 16.08C182.216 16.2933 182.663 16.6267 183.036 17.08C183.423 17.52 183.623 18.1067 183.636 18.84C183.636 19.48 183.456 20.0533 183.096 20.56C182.75 21.0667 182.243 21.4667 181.576 21.76C180.923 22.04 180.156 22.18 179.276 22.18ZM192.195 13.22V18.58C192.195 18.9533 192.281 19.2267 192.455 19.4C192.641 19.56 192.948 19.64 193.375 19.64H194.675V22H192.915C190.555 22 189.375 20.8533 189.375 18.56V13.22H188.055V10.92H189.375V8.18H192.195V10.92H194.675V13.22H192.195Z"/>
</mask>
<path d="M0.7 15C0.7 13.6267 1.00667 12.4 1.62 11.32C2.24667 10.2267 3.09333 9.38 4.16 8.78C5.24 8.16667 6.44667 7.86 7.78 7.86C9.34 7.86 10.7067 8.26 11.88 9.06C13.0533 9.86 13.8733 10.9667 14.34 12.38H11.12C10.8 11.7133 10.3467 11.2133 9.76 10.88C9.18667 10.5467 8.52 10.38 7.76 10.38C6.94667 10.38 6.22 10.5733 5.58 10.96C4.95333 11.3333 4.46 11.8667 4.1 12.56C3.75333 13.2533 3.58 14.0667 3.58 15C3.58 15.92 3.75333 16.7333 4.1 17.44C4.46 18.1333 4.95333 18.6733 5.58 19.06C6.22 19.4333 6.94667 19.62 7.76 19.62C8.52 19.62 9.18667 19.4533 9.76 19.12C10.3467 18.7733 10.8 18.2667 11.12 17.6H14.34C13.8733 19.0267 13.0533 20.14 11.88 20.94C10.72 21.7267 9.35333 22.12 7.78 22.12C6.44667 22.12 5.24 21.82 4.16 21.22C3.09333 20.6067 2.24667 19.76 1.62 18.68C1.00667 17.6 0.7 16.3733 0.7 15ZM19.0116 16.42C19.0116 15.3 19.2316 14.3067 19.6716 13.44C20.1249 12.5733 20.7316 11.9067 21.4916 11.44C22.2649 10.9733 23.1249 10.74 24.0716 10.74C24.8982 10.74 25.6182 10.9067 26.2316 11.24C26.8582 11.5733 27.3582 11.9933 27.7316 12.5V10.92H30.5516V22H27.7316V20.38C27.3716 20.9 26.8716 21.3333 26.2316 21.68C25.6049 22.0133 24.8782 22.18 24.0516 22.18C23.1182 22.18 22.2649 21.94 21.4916 21.46C20.7316 20.98 20.1249 20.3067 19.6716 19.44C19.2316 18.56 19.0116 17.5533 19.0116 16.42ZM27.7316 16.46C27.7316 15.78 27.5982 15.2 27.3316 14.72C27.0649 14.2267 26.7049 13.8533 26.2516 13.6C25.7982 13.3333 25.3116 13.2 24.7916 13.2C24.2716 13.2 23.7916 13.3267 23.3516 13.58C22.9116 13.8333 22.5516 14.2067 22.2716 14.7C22.0049 15.18 21.8716 15.7533 21.8716 16.42C21.8716 17.0867 22.0049 17.6733 22.2716 18.18C22.5516 18.6733 22.9116 19.0533 23.3516 19.32C23.8049 19.5867 24.2849 19.72 24.7916 19.72C25.3116 19.72 25.7982 19.5933 26.2516 19.34C26.7049 19.0733 27.0649 18.7 27.3316 18.22C27.5982 17.7267 27.7316 17.14 27.7316 16.46ZM39.0863 12.64C39.4463 12.0533 39.9129 11.5933 40.4863 11.26C41.0729 10.9267 41.7396 10.76 42.4863 10.76V13.7H41.7463C40.8663 13.7 40.1996 13.9067 39.7463 14.32C39.3063 14.7333 39.0863 15.4533 39.0863 16.48V22H36.2863V10.92H39.0863V12.64ZM57.6722 16.22C57.6722 16.62 57.6455 16.98 57.5922 17.3H49.4922C49.5589 18.1 49.8389 18.7267 50.3322 19.18C50.8255 19.6333 51.4322 19.86 52.1522 19.86C53.1922 19.86 53.9322 19.4133 54.3722 18.52H57.3922C57.0722 19.5867 56.4589 20.4667 55.5522 21.16C54.6455 21.84 53.5322 22.18 52.2122 22.18C51.1455 22.18 50.1855 21.9467 49.3322 21.48C48.4922 21 47.8322 20.3267 47.3522 19.46C46.8855 18.5933 46.6522 17.5933 46.6522 16.46C46.6522 15.3133 46.8855 14.3067 47.3522 13.44C47.8189 12.5733 48.4722 11.9067 49.3122 11.44C50.1522 10.9733 51.1189 10.74 52.2122 10.74C53.2655 10.74 54.2055 10.9667 55.0322 11.42C55.8722 11.8733 56.5189 12.52 56.9722 13.36C57.4389 14.1867 57.6722 15.14 57.6722 16.22ZM54.7722 15.42C54.7589 14.7 54.4989 14.1267 53.9922 13.7C53.4855 13.26 52.8655 13.04 52.1322 13.04C51.4389 13.04 50.8522 13.2533 50.3722 13.68C49.9055 14.0933 49.6189 14.6733 49.5122 15.42H54.7722ZM73.0159 16.22C73.0159 16.62 72.9893 16.98 72.9359 17.3H64.8359C64.9026 18.1 65.1826 18.7267 65.6759 19.18C66.1693 19.6333 66.7759 19.86 67.4959 19.86C68.5359 19.86 69.2759 19.4133 69.7159 18.52H72.7359C72.4159 19.5867 71.8026 20.4667 70.8959 21.16C69.9893 21.84 68.8759 22.18 67.5559 22.18C66.4893 22.18 65.5293 21.9467 64.6759 21.48C63.8359 21 63.1759 20.3267 62.6959 19.46C62.2293 18.5933 61.9959 17.5933 61.9959 16.46C61.9959 15.3133 62.2293 14.3067 62.6959 13.44C63.1626 12.5733 63.8159 11.9067 64.6559 11.44C65.4959 10.9733 66.4626 10.74 67.5559 10.74C68.6093 10.74 69.5493 10.9667 70.3759 11.42C71.2159 11.8733 71.8626 12.52 72.3159 13.36C72.7826 14.1867 73.0159 15.14 73.0159 16.22ZM70.1159 15.42C70.1026 14.7 69.8426 14.1267 69.3359 13.7C68.8293 13.26 68.2093 13.04 67.4759 13.04C66.7826 13.04 66.1959 13.2533 65.7159 13.68C65.2493 14.0933 64.9626 14.6733 64.8559 15.42H70.1159ZM80.8597 12.64C81.2197 12.0533 81.6864 11.5933 82.2597 11.26C82.8464 10.9267 83.513 10.76 84.2597 10.76V13.7H83.5197C82.6397 13.7 81.973 13.9067 81.5197 14.32C81.0797 14.7333 80.8597 15.4533 80.8597 16.48V22H78.0597V10.92H80.8597V12.64ZM88.4656 15C88.4656 13.6267 88.7723 12.4 89.3856 11.32C90.0123 10.2267 90.859 9.38 91.9256 8.78C93.0056 8.16667 94.2123 7.86 95.5456 7.86C97.1056 7.86 98.4723 8.26 99.6456 9.06C100.819 9.86 101.639 10.9667 102.106 12.38H98.8856C98.5656 11.7133 98.1123 11.2133 97.5256 10.88C96.9523 10.5467 96.2856 10.38 95.5256 10.38C94.7123 10.38 93.9856 10.5733 93.3456 10.96C92.719 11.3333 92.2256 11.8667 91.8656 12.56C91.519 13.2533 91.3456 14.0667 91.3456 15C91.3456 15.92 91.519 16.7333 91.8656 17.44C92.2256 18.1333 92.719 18.6733 93.3456 19.06C93.9856 19.4333 94.7123 19.62 95.5256 19.62C96.2856 19.62 96.9523 19.4533 97.5256 19.12C98.1123 18.7733 98.5656 18.2667 98.8856 17.6H102.106C101.639 19.0267 100.819 20.14 99.6456 20.94C98.4856 21.7267 97.119 22.12 95.5456 22.12C94.2123 22.12 93.0056 21.82 91.9256 21.22C90.859 20.6067 90.0123 19.76 89.3856 18.68C88.7723 17.6 88.4656 16.3733 88.4656 15ZM106.777 16.42C106.777 15.3 106.997 14.3067 107.437 13.44C107.891 12.5733 108.497 11.9067 109.257 11.44C110.031 10.9733 110.891 10.74 111.837 10.74C112.664 10.74 113.384 10.9067 113.997 11.24C114.624 11.5733 115.124 11.9933 115.497 12.5V10.92H118.317V22H115.497V20.38C115.137 20.9 114.637 21.3333 113.997 21.68C113.371 22.0133 112.644 22.18 111.817 22.18C110.884 22.18 110.031 21.94 109.257 21.46C108.497 20.98 107.891 20.3067 107.437 19.44C106.997 18.56 106.777 17.5533 106.777 16.42ZM115.497 16.46C115.497 15.78 115.364 15.2 115.097 14.72C114.831 14.2267 114.471 13.8533 114.017 13.6C113.564 13.3333 113.077 13.2 112.557 13.2C112.037 13.2 111.557 13.3267 111.117 13.58C110.677 13.8333 110.317 14.2067 110.037 14.7C109.771 15.18 109.637 15.7533 109.637 16.42C109.637 17.0867 109.771 17.6733 110.037 18.18C110.317 18.6733 110.677 19.0533 111.117 19.32C111.571 19.5867 112.051 19.72 112.557 19.72C113.077 19.72 113.564 19.5933 114.017 19.34C114.471 19.0733 114.831 18.7 115.097 18.22C115.364 17.7267 115.497 17.14 115.497 16.46ZM127.312 13.22V18.58C127.312 18.9533 127.399 19.2267 127.572 19.4C127.759 19.56 128.065 19.64 128.492 19.64H129.792V22H128.032C125.672 22 124.492 20.8533 124.492 18.56V13.22H123.172V10.92H124.492V8.18H127.312V10.92H129.792V13.22H127.312ZM134.086 16.42C134.086 15.3 134.306 14.3067 134.746 13.44C135.199 12.5733 135.806 11.9067 136.566 11.44C137.339 10.9733 138.199 10.74 139.146 10.74C139.972 10.74 140.692 10.9067 141.306 11.24C141.932 11.5733 142.432 11.9933 142.806 12.5V10.92H145.626V22H142.806V20.38C142.446 20.9 141.946 21.3333 141.306 21.68C140.679 22.0133 139.952 22.18 139.126 22.18C138.192 22.18 137.339 21.94 136.566 21.46C135.806 20.98 135.199 20.3067 134.746 19.44C134.306 18.56 134.086 17.5533 134.086 16.42ZM142.806 16.46C142.806 15.78 142.672 15.2 142.406 14.72C142.139 14.2267 141.779 13.8533 141.326 13.6C140.872 13.3333 140.386 13.2 139.866 13.2C139.346 13.2 138.866 13.3267 138.426 13.58C137.986 13.8333 137.626 14.2067 137.346 14.7C137.079 15.18 136.946 15.7533 136.946 16.42C136.946 17.0867 137.079 17.6733 137.346 18.18C137.626 18.6733 137.986 19.0533 138.426 19.32C138.879 19.5867 139.359 19.72 139.866 19.72C140.386 19.72 140.872 19.5933 141.326 19.34C141.779 19.0733 142.139 18.7 142.406 18.22C142.672 17.7267 142.806 17.14 142.806 16.46ZM154.16 7.2V22H151.36V7.2H154.16ZM170.527 10.92L163.667 27.24H160.687L163.087 21.72L158.647 10.92H161.787L164.647 18.66L167.547 10.92H170.527ZM179.276 22.18C178.37 22.18 177.556 22.02 176.836 21.7C176.116 21.3667 175.543 20.92 175.116 20.36C174.703 19.8 174.476 19.18 174.436 18.5H177.256C177.31 18.9267 177.516 19.28 177.876 19.56C178.25 19.84 178.71 19.98 179.256 19.98C179.79 19.98 180.203 19.8733 180.496 19.66C180.803 19.4467 180.956 19.1733 180.956 18.84C180.956 18.48 180.77 18.2133 180.396 18.04C180.036 17.8533 179.456 17.6533 178.656 17.44C177.83 17.24 177.15 17.0333 176.616 16.82C176.096 16.6067 175.643 16.28 175.256 15.84C174.883 15.4 174.696 14.8067 174.696 14.06C174.696 13.4467 174.87 12.8867 175.216 12.38C175.576 11.8733 176.083 11.4733 176.736 11.18C177.403 10.8867 178.183 10.74 179.076 10.74C180.396 10.74 181.45 11.0733 182.236 11.74C183.023 12.3933 183.456 13.28 183.536 14.4H180.856C180.816 13.96 180.63 13.6133 180.296 13.36C179.976 13.0933 179.543 12.96 178.996 12.96C178.49 12.96 178.096 13.0533 177.816 13.24C177.55 13.4267 177.416 13.6867 177.416 14.02C177.416 14.3933 177.603 14.68 177.976 14.88C178.35 15.0667 178.93 15.26 179.716 15.46C180.516 15.66 181.176 15.8667 181.696 16.08C182.216 16.2933 182.663 16.6267 183.036 17.08C183.423 17.52 183.623 18.1067 183.636 18.84C183.636 19.48 183.456 20.0533 183.096 20.56C182.75 21.0667 182.243 21.4667 181.576 21.76C180.923 22.04 180.156 22.18 179.276 22.18ZM192.195 13.22V18.58C192.195 18.9533 192.281 19.2267 192.455 19.4C192.641 19.56 192.948 19.64 193.375 19.64H194.675V22H192.915C190.555 22 189.375 20.8533 189.375 18.56V13.22H188.055V10.92H189.375V8.18H192.195V10.92H194.675V13.22H192.195Z" fill="#A6A6A6"/>
<path d="M1.62 11.32L-2.71796 8.83361C-2.72125 8.83936 -2.72453 8.84511 -2.72781 8.85088L1.62 11.32ZM4.16 8.78L6.6113 13.1379C6.61725 13.1345 6.62319 13.1312 6.62913 13.1278L4.16 8.78ZM14.34 12.38V17.38C15.9447 17.38 17.4519 16.6098 18.3921 15.3093C19.3322 14.0088 19.591 12.3361 19.0879 10.8123L14.34 12.38ZM11.12 12.38L6.61239 14.5437C7.44451 16.2772 9.19706 17.38 11.12 17.38L11.12 12.38ZM9.76 10.88L7.2469 15.2025C7.26121 15.2109 7.27556 15.2191 7.28995 15.2273L9.76 10.88ZM5.58 10.96L8.13903 15.2555C8.14789 15.2502 8.15674 15.2449 8.16558 15.2396L5.58 10.96ZM4.1 12.56L-0.337481 10.2559C-0.349205 10.2785 -0.360757 10.3012 -0.372136 10.3239L4.1 12.56ZM4.1 17.44L-0.388947 19.6421C-0.37218 19.6763 -0.355023 19.7103 -0.33748 19.7441L4.1 17.44ZM5.58 19.06L2.95446 23.3152C2.98959 23.3369 3.02499 23.3581 3.06065 23.3789L5.58 19.06ZM9.76 19.12L12.2731 23.4425C12.2833 23.4366 12.2935 23.4306 12.3036 23.4246L9.76 19.12ZM11.12 17.6V12.6C9.19706 12.6 7.4445 13.7028 6.61239 15.4363L11.12 17.6ZM14.34 17.6L19.0922 19.1545C19.5904 17.6316 19.3285 15.9623 18.388 14.6651C17.4475 13.3679 15.9423 12.6 14.34 12.6L14.34 17.6ZM11.88 20.94L14.6864 25.0782L14.6967 25.0711L11.88 20.94ZM4.16 21.22L1.66764 25.5545C1.68894 25.5668 1.71032 25.5789 1.73179 25.5908L4.16 21.22ZM1.62 18.68L-2.72781 21.1491C-2.72016 21.1626 -2.71246 21.176 -2.70469 21.1894L1.62 18.68ZM5.7 15C5.7 14.3985 5.82596 14.0389 5.96781 13.7891L-2.72781 8.85088C-3.81263 10.7611 -4.3 12.8548 -4.3 15H5.7ZM5.95796 13.8064C6.15004 13.4713 6.35496 13.2821 6.6113 13.1379L1.7087 4.42212C-0.168294 5.47793 -1.65671 6.98207 -2.71796 8.83361L5.95796 13.8064ZM6.62913 13.1278C6.90125 12.9733 7.24656 12.86 7.78 12.86V2.86C5.64678 2.86 3.57875 3.36007 1.69088 4.43219L6.62913 13.1278ZM7.78 12.86C8.43851 12.86 8.80174 13.0128 9.06332 13.1911L14.6967 4.92886C12.6116 3.50721 10.2415 2.86 7.78 2.86V12.86ZM9.06332 13.1911C9.28299 13.3409 9.45224 13.524 9.59212 13.9477L19.0879 10.8123C18.2944 8.40928 16.8237 6.37908 14.6967 4.92886L9.06332 13.1911ZM14.34 7.38H11.12V17.38H14.34V7.38ZM15.6276 10.2163C14.911 8.72348 13.7875 7.41764 12.2301 6.53272L7.28995 15.2273C7.12195 15.1318 6.96539 15.0063 6.83583 14.8634C6.70907 14.7236 6.64135 14.604 6.61239 14.5437L15.6276 10.2163ZM12.2731 6.55746C10.8308 5.71894 9.27192 5.38 7.76 5.38V15.38C7.77384 15.38 7.71994 15.3814 7.61732 15.3557C7.5111 15.3292 7.38125 15.2806 7.2469 15.2025L12.2731 6.55746ZM7.76 5.38C6.11798 5.38 4.4824 5.78143 2.99442 6.68042L8.16558 15.2396C8.07825 15.2923 7.98191 15.3326 7.89055 15.3569C7.80182 15.3805 7.75218 15.38 7.76 15.38V5.38ZM3.02097 6.66449C1.53799 7.54797 0.419521 8.79799 -0.337481 10.2559L8.53748 14.8641C8.52711 14.8841 8.48897 14.9504 8.4105 15.0352C8.33041 15.1218 8.23573 15.1979 8.13903 15.2555L3.02097 6.66449ZM-0.372136 10.3239C-1.12977 11.8392 -1.42 13.447 -1.42 15H8.58C8.58 14.8417 8.59477 14.7576 8.60018 14.7322C8.60499 14.7096 8.60136 14.7376 8.57214 14.7961L-0.372136 10.3239ZM-1.42 15C-1.42 16.555 -1.12417 18.1434 -0.388947 19.6421L8.58895 15.2379C8.6064 15.2735 8.60607 15.2855 8.60018 15.2578C8.59377 15.2277 8.58 15.1463 8.58 15H-1.42ZM-0.33748 19.7441C0.412628 21.1887 1.5112 22.4247 2.95446 23.3152L8.20554 14.8048C8.28401 14.8532 8.36332 14.918 8.43144 14.9926C8.49829 15.0657 8.5301 15.1217 8.53748 15.1359L-0.33748 19.7441ZM3.06065 23.3789C4.5387 24.2411 6.15039 24.62 7.76 24.62V14.62C7.73801 14.62 7.7734 14.6178 7.84901 14.6372C7.92725 14.6573 8.01543 14.6921 8.09935 14.7411L3.06065 23.3789ZM7.76 24.62C9.27192 24.62 10.8309 24.2811 12.2731 23.4425L7.2469 14.7975C7.38125 14.7194 7.5111 14.6708 7.61732 14.6443C7.71994 14.6186 7.77384 14.62 7.76 14.62V24.62ZM12.3036 23.4246C13.8153 22.5314 14.9175 21.2431 15.6276 19.7637L6.61239 15.4363C6.63862 15.3817 6.69988 15.2733 6.81379 15.146C6.92999 15.0162 7.06908 14.9024 7.21635 14.8154L12.3036 23.4246ZM11.12 22.6H14.34V12.6H11.12V22.6ZM9.58778 16.0455C9.44329 16.4872 9.27065 16.6675 9.06332 16.8089L14.6967 25.0711C16.836 23.6125 18.3034 21.5661 19.0922 19.1545L9.58778 16.0455ZM9.07366 16.8018C8.84116 16.9595 8.47992 17.12 7.78 17.12V27.12C10.2268 27.12 12.5988 26.4938 14.6863 25.0782L9.07366 16.8018ZM7.78 17.12C7.22711 17.12 6.86713 17.0042 6.58821 16.8492L1.73179 25.5908C3.61287 26.6358 5.66622 27.12 7.78 27.12V17.12ZM6.65236 16.8855C6.35769 16.716 6.13805 16.5038 5.94469 16.1706L-2.70469 21.1894C-1.64472 23.0162 -0.171022 24.4973 1.66764 25.5545L6.65236 16.8855ZM5.96781 16.2109C5.82596 15.9611 5.7 15.6015 5.7 15H-4.3C-4.3 17.1452 -3.81263 19.2389 -2.72781 21.1491L5.96781 16.2109ZM19.6716 13.44L15.2411 11.1225C15.2317 11.1405 15.2224 11.1585 15.2132 11.1765L19.6716 13.44ZM21.4916 11.44L18.9082 7.15906C18.8972 7.16571 18.8862 7.17241 18.8752 7.17914L21.4916 11.44ZM26.2316 11.24L23.844 15.6331C23.8571 15.6403 23.8703 15.6473 23.8835 15.6544L26.2316 11.24ZM27.7316 12.5L23.7063 15.466C24.9876 17.2049 27.2406 17.9244 29.2926 17.2501C31.3446 16.5757 32.7316 14.66 32.7316 12.5H27.7316ZM27.7316 10.92V5.92C24.9701 5.92 22.7316 8.15858 22.7316 10.92L27.7316 10.92ZM30.5516 10.92H35.5516C35.5516 8.15858 33.313 5.92 30.5516 5.92V10.92ZM30.5516 22V27C33.313 27 35.5516 24.7614 35.5516 22H30.5516ZM27.7316 22H22.7316C22.7316 24.7614 24.9701 27 27.7316 27V22ZM27.7316 20.38H32.7316C32.7316 18.1929 31.31 16.2596 29.2224 15.6074C27.1348 14.9553 24.8655 15.7357 23.6206 17.534L27.7316 20.38ZM26.2316 21.68L28.5796 26.0944C28.5908 26.0884 28.6019 26.0825 28.613 26.0765L26.2316 21.68ZM21.4916 21.46L18.8216 25.6874C18.8326 25.6944 18.8437 25.7013 18.8547 25.7082L21.4916 21.46ZM19.6716 19.44L15.1994 21.6761C15.2131 21.7033 15.2269 21.7305 15.2411 21.7575L19.6716 19.44ZM27.3316 14.72L22.933 17.0976C22.9422 17.1145 22.9514 17.1314 22.9608 17.1482L27.3316 14.72ZM26.2516 13.6L23.7165 17.9097C23.7483 17.9284 23.7803 17.9467 23.8125 17.9647L26.2516 13.6ZM23.3516 13.58L20.8567 9.24689L20.8567 9.24689L23.3516 13.58ZM22.2716 14.7L17.9231 12.232C17.9156 12.2452 17.9082 12.2585 17.9008 12.2718L22.2716 14.7ZM22.2716 18.18L17.847 20.5087C17.8716 20.5556 17.897 20.602 17.9231 20.648L22.2716 18.18ZM23.3516 19.32L20.7601 23.596C20.7788 23.6073 20.7976 23.6186 20.8165 23.6297L23.3516 19.32ZM26.2516 19.34L28.6907 23.7047C28.7229 23.6867 28.7549 23.6684 28.7867 23.6497L26.2516 19.34ZM27.3316 18.22L31.7023 20.6482C31.7117 20.6314 31.7209 20.6145 31.7301 20.5976L27.3316 18.22ZM24.0116 16.42C24.0116 15.9664 24.0967 15.7689 24.1299 15.7035L15.2132 11.1765C14.3665 12.8444 14.0116 14.6336 14.0116 16.42H24.0116ZM24.1021 15.7575C24.125 15.7135 24.1428 15.6858 24.1532 15.6708C24.1635 15.6559 24.1677 15.6518 24.1646 15.6552C24.1614 15.6587 24.1538 15.6665 24.142 15.6763C24.1302 15.6861 24.1182 15.6945 24.1079 15.7009L18.8752 7.17914C17.273 8.16297 16.071 9.53593 15.2411 11.1225L24.1021 15.7575ZM24.0749 15.7209C24.0749 15.7209 24.0745 15.7212 24.0737 15.7216C24.0728 15.7221 24.0716 15.7228 24.07 15.7236C24.0668 15.7252 24.0626 15.7273 24.0574 15.7295C24.0522 15.7317 24.0467 15.7338 24.0411 15.7358C24.0355 15.7378 24.0303 15.7393 24.0258 15.7405C24.0164 15.7431 24.0131 15.7432 24.0183 15.7426C24.0236 15.7419 24.0407 15.74 24.0716 15.74V5.74C22.2601 5.74 20.4994 6.19887 18.9082 7.15906L24.0749 15.7209ZM24.0716 15.74C24.1495 15.74 24.1544 15.7479 24.104 15.7362C24.0501 15.7237 23.9564 15.6942 23.844 15.6331L28.6191 6.84688C27.1489 6.04785 25.5786 5.74 24.0716 5.74V15.74ZM23.8835 15.6544C23.9143 15.6708 23.9007 15.6672 23.8606 15.6335C23.819 15.5986 23.763 15.5429 23.7063 15.466L31.7568 9.534C30.8861 8.3523 29.7818 7.46509 28.5796 6.82564L23.8835 15.6544ZM32.7316 12.5V10.92H22.7316V12.5H32.7316ZM27.7316 15.92H30.5516V5.92H27.7316V15.92ZM25.5516 10.92V22H35.5516V10.92H25.5516ZM30.5516 17H27.7316V27H30.5516V17ZM32.7316 22V20.38H22.7316V22H32.7316ZM23.6206 17.534C23.69 17.4338 23.7598 17.3617 23.8119 17.3166C23.8621 17.2731 23.8823 17.2661 23.8501 17.2835L28.613 26.0765C29.8387 25.4125 30.9727 24.4825 31.8425 23.226L23.6206 17.534ZM23.8835 17.2656C23.9774 17.2157 24.0552 17.1915 24.0988 17.1815C24.1393 17.1722 24.1289 17.18 24.0516 17.18V27.18C25.5618 27.18 27.1194 26.8711 28.5796 26.0944L23.8835 17.2656ZM24.0516 17.18C24.033 17.18 24.0273 17.1788 24.0322 17.1795C24.0374 17.1802 24.0491 17.1822 24.0653 17.1867C24.0815 17.1913 24.097 17.197 24.1103 17.2029C24.1234 17.2087 24.1297 17.2126 24.1284 17.2118L18.8547 25.7082C20.4407 26.6926 22.2114 27.18 24.0516 27.18V17.18ZM24.1615 17.2326C24.1645 17.2344 24.1695 17.238 24.175 17.2426C24.1804 17.2472 24.1826 17.2497 24.1812 17.2481C24.18 17.2468 24.1495 17.2132 24.1021 17.1225L15.2411 21.7575C16.0657 23.3339 17.2519 24.6961 18.8216 25.6874L24.1615 17.2326ZM24.1437 17.2039C24.1001 17.1167 24.0116 16.8953 24.0116 16.42H14.0116C14.0116 18.2114 14.363 20.0033 15.1994 21.6761L24.1437 17.2039ZM32.7316 16.46C32.7316 15.1304 32.469 13.6718 31.7024 12.2918L22.9608 17.1482C22.7274 16.7282 22.7316 16.4296 22.7316 16.46H32.7316ZM31.7301 12.3424C31.0497 11.0836 30.0388 9.98867 28.6907 9.23528L23.8125 17.9647C23.6112 17.8523 23.4235 17.7078 23.2623 17.5407C23.1031 17.3756 22.9979 17.2176 22.933 17.0976L31.7301 12.3424ZM28.7867 9.29033C27.5742 8.57711 26.2137 8.2 24.7916 8.2V18.2C24.6189 18.2 24.4256 18.1771 24.2254 18.1223C24.0256 18.0675 23.8539 17.9905 23.7165 17.9097L28.7867 9.29033ZM24.7916 8.2C23.4181 8.2 22.0746 8.5457 20.8567 9.24689L25.8464 17.9131C25.6927 18.0016 25.5137 18.0777 25.3173 18.1295C25.1217 18.1811 24.9417 18.2 24.7916 18.2V8.2ZM20.8567 9.24689C19.5557 9.996 18.5906 11.0559 17.9231 12.232L26.62 17.168C26.5125 17.3574 26.2675 17.6707 25.8464 17.9131L20.8567 9.24689ZM17.9008 12.2718C17.1417 13.6381 16.8716 15.0845 16.8716 16.42H26.8716C26.8716 16.4186 26.8718 16.4927 26.8416 16.6226C26.8105 16.7564 26.7505 16.9335 26.6423 17.1282L17.9008 12.2718ZM16.8716 16.42C16.8716 17.7644 17.1447 19.1743 17.847 20.5087L26.6962 15.8513C26.7758 16.0025 26.8223 16.142 26.8472 16.2519C26.8715 16.3588 26.8716 16.4201 26.8716 16.42H16.8716ZM17.9231 20.648C18.5805 21.8062 19.5166 22.8424 20.7601 23.596L25.9431 15.044C26.3065 15.2643 26.5226 15.5404 26.62 15.712L17.9231 20.648ZM20.8165 23.6297C22.0076 24.3303 23.3586 24.72 24.7916 24.72V14.72C24.9827 14.72 25.1866 14.746 25.3898 14.8024C25.5919 14.8585 25.7591 14.9353 25.8867 15.0103L20.8165 23.6297ZM24.7916 24.72C26.1643 24.72 27.4909 24.3752 28.6907 23.7047L23.8125 14.9753C23.9451 14.9012 24.1054 14.8335 24.2872 14.7862C24.4689 14.7389 24.6411 14.72 24.7916 14.72V24.72ZM28.7867 23.6497C30.0433 22.9105 31.0224 21.872 31.7023 20.6482L22.9608 15.7918C23.0259 15.6745 23.1238 15.533 23.2623 15.3893C23.4018 15.2447 23.5576 15.1238 23.7165 15.0303L28.7867 23.6497ZM31.7301 20.5976C32.4672 19.234 32.7316 17.7951 32.7316 16.46H22.7316C22.7316 16.4849 22.7293 16.2193 22.933 15.8424L31.7301 20.5976ZM39.0863 12.64H34.0863C34.0863 14.8782 35.5736 16.8437 37.7276 17.4519C39.8815 18.06 42.1773 17.1627 43.3479 15.2551L39.0863 12.64ZM40.4863 11.26L38.0162 6.91272C38.0018 6.9209 37.9875 6.92914 37.9731 6.93746L40.4863 11.26ZM42.4863 10.76H47.4863C47.4863 7.99858 45.2477 5.76 42.4863 5.76V10.76ZM42.4863 13.7V18.7C45.2477 18.7 47.4863 16.4614 47.4863 13.7L42.4863 13.7ZM39.7463 14.32L36.3775 10.6252C36.3592 10.6419 36.341 10.6588 36.3229 10.6758L39.7463 14.32ZM39.0863 22V27C41.8477 27 44.0863 24.7614 44.0863 22H39.0863ZM36.2863 22H31.2863C31.2863 24.7614 33.5248 27 36.2863 27V22ZM36.2863 10.92V5.92C33.5248 5.92 31.2863 8.15858 31.2863 10.92L36.2863 10.92ZM39.0863 10.92H44.0863C44.0863 8.15858 41.8477 5.92 39.0863 5.92V10.92ZM43.3479 15.2551C43.3271 15.2889 43.2849 15.3482 43.2163 15.4159C43.147 15.4842 43.0712 15.5408 42.9994 15.5825L37.9731 6.93746C36.6571 7.70259 35.6003 8.76094 34.8246 10.0249L43.3479 15.2551ZM42.9563 15.6073C42.848 15.6688 42.7374 15.7111 42.6389 15.7357C42.5921 15.7474 42.554 15.7536 42.5268 15.7568C42.4999 15.76 42.4857 15.76 42.4863 15.76V5.76C40.9681 5.76 39.4339 6.10719 38.0162 6.91272L42.9563 15.6073ZM37.4863 10.76V13.7H47.4863V10.76H37.4863ZM42.4863 8.7H41.7463V18.7H42.4863V8.7ZM41.7463 8.7C40.157 8.7 38.0838 9.0695 36.3775 10.6252L43.115 18.0148C42.3154 18.7438 41.5755 18.7 41.7463 18.7V8.7ZM36.3229 10.6758C34.3627 12.5171 34.0863 14.988 34.0863 16.48H44.0863C44.0863 16.295 44.1095 16.3808 44.033 16.6311C43.9505 16.9012 43.724 17.4435 43.1696 17.9642L36.3229 10.6758ZM34.0863 16.48V22H44.0863V16.48H34.0863ZM39.0863 17H36.2863V27H39.0863V17ZM41.2863 22V10.92H31.2863V22H41.2863ZM36.2863 15.92H39.0863V5.92H36.2863V15.92ZM34.0863 10.92V12.64H44.0863V10.92H34.0863ZM57.5922 17.3V22.3C60.0364 22.3 62.1223 20.5329 62.5242 18.122L57.5922 17.3ZM49.4922 17.3V12.3C48.0939 12.3 46.7596 12.8855 45.8128 13.9145C44.866 14.9434 44.3933 16.3218 44.5095 17.7152L49.4922 17.3ZM50.3322 19.18L46.9491 22.8616L46.9491 22.8616L50.3322 19.18ZM54.3722 18.52V13.52C52.4675 13.52 50.7283 14.6021 49.8867 16.3107L54.3722 18.52ZM57.3922 18.52L62.1813 19.9567C62.6355 18.4429 62.3471 16.8034 61.4037 15.5353C60.4602 14.2673 58.9727 13.52 57.3922 13.52V18.52ZM55.5522 21.16L58.5522 25.16C58.5646 25.1507 58.5771 25.1413 58.5894 25.1318L55.5522 21.16ZM49.3322 21.48L46.8515 25.8212C46.8786 25.8367 46.9058 25.8519 46.9331 25.8669L49.3322 21.48ZM47.3522 19.46L42.9498 21.8305C42.9592 21.8479 42.9687 21.8652 42.9782 21.8825L47.3522 19.46ZM47.3522 13.44L42.9498 11.0695L42.9498 11.0695L47.3522 13.44ZM49.3122 11.44L51.7404 15.8108L51.7404 15.8108L49.3122 11.44ZM55.0322 11.42L52.628 15.8041C52.6378 15.8094 52.6477 15.8148 52.6575 15.8201L55.0322 11.42ZM56.9722 13.36L52.5721 15.7347C52.5871 15.7626 52.6025 15.7903 52.6181 15.818L56.9722 13.36ZM54.7722 15.42V20.42C56.1143 20.42 57.4001 19.8804 58.3403 18.9227C59.2805 17.9649 59.7962 16.6693 59.7713 15.3274L54.7722 15.42ZM53.9922 13.7L50.7138 17.4752C50.7329 17.4918 50.7521 17.5082 50.7715 17.5246L53.9922 13.7ZM50.3722 13.68L53.6874 17.4229L53.694 17.417L50.3722 13.68ZM49.5122 15.42L44.5624 14.7129C44.3575 16.1478 44.7852 17.601 45.7349 18.696C46.6846 19.791 48.0627 20.42 49.5122 20.42V15.42ZM52.6722 16.22C52.6722 16.4054 52.6593 16.4837 52.6602 16.478L62.5242 18.122C62.6318 17.4763 62.6722 16.8346 62.6722 16.22H52.6722ZM57.5922 12.3H49.4922V22.3H57.5922V12.3ZM44.5095 17.7152C44.6585 19.504 45.3544 21.3962 46.9491 22.8616L53.7153 15.4984C53.9828 15.7442 54.1862 16.0371 54.3172 16.3303C54.4422 16.61 54.4692 16.8167 54.4749 16.8848L44.5095 17.7152ZM46.9491 22.8616C48.4376 24.2295 50.2812 24.86 52.1522 24.86V14.86C52.3232 14.86 52.5917 14.8884 52.9072 15.0062C53.2286 15.1264 53.504 15.3042 53.7153 15.4984L46.9491 22.8616ZM52.1522 24.86C53.3971 24.86 54.7762 24.5872 56.071 23.8056C57.3788 23.0163 58.2807 21.9005 58.8576 20.7293L49.8867 16.3107C50.0236 16.0328 50.3356 15.5871 50.9034 15.2444C51.4581 14.9095 51.9473 14.86 52.1522 14.86V24.86ZM54.3722 23.52H57.3922V13.52H54.3722V23.52ZM52.6031 17.0833C52.5953 17.1092 52.5896 17.1213 52.5886 17.1234C52.5877 17.1252 52.5885 17.1235 52.5902 17.121C52.5919 17.1186 52.5901 17.1217 52.5812 17.1309C52.5721 17.1404 52.5518 17.16 52.5149 17.1882L58.5894 25.1318C60.3101 23.816 61.5508 22.0584 62.1813 19.9567L52.6031 17.0833ZM52.5522 17.16C52.5755 17.1426 52.5941 17.1377 52.5768 17.143C52.552 17.1506 52.4424 17.18 52.2122 17.18V27.18C54.4291 27.18 56.6429 26.5919 58.5522 25.16L52.5522 17.16ZM52.2122 17.18C51.901 17.18 51.7794 17.1195 51.7312 17.0931L46.9331 25.8669C48.5916 26.7738 50.3901 27.18 52.2122 27.18V17.18ZM51.8129 17.1388C51.7958 17.129 51.7869 17.1225 51.7836 17.12C51.7805 17.1175 51.779 17.1162 51.7779 17.115C51.7767 17.1138 51.7723 17.1092 51.7646 17.0989C51.7569 17.0884 51.7436 17.069 51.7261 17.0375L42.9782 21.8825C43.8906 23.5298 45.1968 24.8757 46.8515 25.8212L51.8129 17.1388ZM51.7545 17.0895C51.736 17.055 51.6522 16.8921 51.6522 16.46H41.6522C41.6522 18.2945 42.0351 20.1317 42.9498 21.8305L51.7545 17.0895ZM51.6522 16.46C51.6522 16.0037 51.7404 15.8368 51.7545 15.8105L42.9498 11.0695C42.0307 12.7765 41.6522 14.6229 41.6522 16.46H51.6522ZM51.7545 15.8105C51.7669 15.7875 51.7743 15.7774 51.7748 15.7767C51.7752 15.7762 51.7743 15.7774 51.7722 15.7799C51.7701 15.7824 51.7671 15.7858 51.7633 15.7896C51.7594 15.7935 51.7553 15.7974 51.7511 15.8012C51.7468 15.8049 51.743 15.808 51.7399 15.8104C51.7332 15.8155 51.7323 15.8153 51.7404 15.8108L46.884 7.06921C45.187 8.012 43.8581 9.38271 42.9498 11.0695L51.7545 15.8105ZM51.7404 15.8108C51.7525 15.8041 51.7802 15.7899 51.8404 15.7754C51.9036 15.7601 52.022 15.74 52.2122 15.74V5.74C50.3878 5.74 48.5641 6.13583 46.884 7.06921L51.7404 15.8108ZM52.2122 15.74C52.5254 15.74 52.6215 15.8005 52.628 15.8041L57.4363 7.03594C55.7896 6.13287 54.0056 5.74 52.2122 5.74V15.74ZM52.6575 15.8201C52.6657 15.8245 52.6626 15.8235 52.652 15.8156C52.6411 15.8076 52.6269 15.7958 52.6117 15.7805C52.5964 15.7653 52.5846 15.7511 52.5766 15.7402C52.5686 15.7295 52.5677 15.7265 52.5721 15.7347L61.3723 10.9853C60.4558 9.28711 59.1051 7.93639 57.4069 7.01989L52.6575 15.8201ZM52.6181 15.818C52.6191 15.8198 52.6289 15.836 52.6405 15.8837C52.653 15.9346 52.6722 16.0409 52.6722 16.22H62.6722C62.6722 14.3991 62.2719 12.577 61.3263 10.902L52.6181 15.818ZM59.7713 15.3274C59.7339 13.3068 58.9269 11.3188 57.2129 9.87544L50.7715 17.5246C50.4855 17.2837 50.2073 16.9422 50.0135 16.515C49.8246 16.0984 49.7772 15.7361 49.773 15.5126L59.7713 15.3274ZM57.2706 9.92483C55.7673 8.61935 53.9497 8.04 52.1322 8.04V18.04C51.9941 18.04 51.7599 18.0182 51.4751 17.9171C51.1839 17.8138 50.9229 17.6568 50.7138 17.4752L57.2706 9.92483ZM52.1322 8.04C50.32 8.04 48.5217 8.6351 47.0504 9.94295L53.694 17.417C53.4758 17.611 53.1984 17.7835 52.8809 17.899C52.5693 18.0123 52.3041 18.04 52.1322 18.04V8.04ZM47.057 9.93706C45.5262 11.2929 44.8001 13.0493 44.5624 14.7129L54.4619 16.1271C54.4525 16.1932 54.4162 16.3843 54.2896 16.6404C54.1574 16.908 53.9566 17.1845 53.6874 17.4229L47.057 9.93706ZM49.5122 20.42H54.7722V10.42H49.5122V20.42ZM72.9359 17.3V22.3C75.3801 22.3 77.4661 20.5329 77.8679 18.122L72.9359 17.3ZM64.8359 17.3V12.3C63.4377 12.3 62.1033 12.8855 61.1565 13.9145C60.2098 14.9434 59.7371 16.3218 59.8532 17.7152L64.8359 17.3ZM65.6759 19.18L62.2928 22.8616L62.2928 22.8616L65.6759 19.18ZM69.7159 18.52V13.52C67.8113 13.52 66.0721 14.6021 65.2305 16.3107L69.7159 18.52ZM72.7359 18.52L77.5251 19.9567C77.9792 18.4429 77.6909 16.8034 76.7474 15.5353C75.8039 14.2673 74.3165 13.52 72.7359 13.52V18.52ZM70.8959 21.16L73.8959 25.16C73.9084 25.1507 73.9208 25.1413 73.9332 25.1318L70.8959 21.16ZM64.6759 21.48L62.1952 25.8212C62.2223 25.8367 62.2495 25.8519 62.2769 25.8669L64.6759 21.48ZM62.6959 19.46L58.2936 21.8305C58.3029 21.8479 58.3124 21.8652 58.322 21.8825L62.6959 19.46ZM62.6959 13.44L58.2936 11.0695L58.2936 11.0695L62.6959 13.44ZM64.6559 11.44L67.0842 15.8108L67.0842 15.8108L64.6559 11.44ZM70.3759 11.42L67.9718 15.8041C67.9816 15.8094 67.9914 15.8148 68.0013 15.8201L70.3759 11.42ZM72.3159 13.36L67.9158 15.7347C67.9309 15.7626 67.9462 15.7903 67.9618 15.818L72.3159 13.36ZM70.1159 15.42V20.42C71.4581 20.42 72.7438 19.8804 73.6841 18.9227C74.6243 17.9649 75.1399 16.6693 75.1151 15.3274L70.1159 15.42ZM69.3359 13.7L66.0575 17.4752C66.0766 17.4918 66.0959 17.5082 66.1153 17.5246L69.3359 13.7ZM65.7159 13.68L69.0311 17.4229L69.0378 17.417L65.7159 13.68ZM64.8559 15.42L59.9062 14.7129C59.7012 16.1478 60.129 17.601 61.0787 18.696C62.0284 19.791 63.4065 20.42 64.8559 20.42V15.42ZM68.0159 16.22C68.0159 16.4054 68.003 16.4837 68.004 16.478L77.8679 18.122C77.9755 17.4763 78.0159 16.8346 78.0159 16.22H68.0159ZM72.9359 12.3H64.8359V22.3H72.9359V12.3ZM59.8532 17.7152C60.0023 19.504 60.6981 21.3962 62.2928 22.8616L69.0591 15.4984C69.3266 15.7442 69.53 16.0371 69.661 16.3303C69.7859 16.61 69.813 16.8167 69.8187 16.8848L59.8532 17.7152ZM62.2928 22.8616C63.7813 24.2295 65.625 24.86 67.4959 24.86V14.86C67.667 14.86 67.9354 14.8884 68.2509 15.0062C68.5724 15.1264 68.8478 15.3042 69.0591 15.4984L62.2928 22.8616ZM67.4959 24.86C68.7408 24.86 70.12 24.5872 71.4148 23.8056C72.7225 23.0163 73.6245 21.9005 74.2014 20.7293L65.2305 16.3107C65.3674 16.0328 65.6794 15.5871 66.2471 15.2444C66.8019 14.9095 67.2911 14.86 67.4959 14.86V24.86ZM69.7159 23.52H72.7359V13.52H69.7159V23.52ZM67.9468 17.0833C67.939 17.1092 67.9334 17.1213 67.9324 17.1234C67.9315 17.1252 67.9322 17.1235 67.9339 17.121C67.9356 17.1186 67.9339 17.1217 67.925 17.1309C67.9159 17.1404 67.8955 17.16 67.8587 17.1882L73.9332 25.1318C75.6538 23.816 76.8946 22.0584 77.5251 19.9567L67.9468 17.0833ZM67.8959 17.16C67.9192 17.1426 67.9379 17.1377 67.9206 17.143C67.8957 17.1506 67.7862 17.18 67.5559 17.18V27.18C69.7728 27.18 71.9867 26.5919 73.8959 25.16L67.8959 17.16ZM67.5559 17.18C67.2447 17.18 67.1232 17.1195 67.075 17.0931L62.2769 25.8669C63.9354 26.7738 65.7338 27.18 67.5559 27.18V17.18ZM67.1566 17.1388C67.1395 17.129 67.1307 17.1225 67.1274 17.12C67.1242 17.1175 67.1228 17.1162 67.1216 17.115C67.1205 17.1138 67.116 17.1092 67.1084 17.0989C67.1006 17.0884 67.0873 17.069 67.0699 17.0375L58.322 21.8825C59.2343 23.5298 60.5406 24.8757 62.1952 25.8212L67.1566 17.1388ZM67.0983 17.0895C67.0797 17.055 66.9959 16.8921 66.9959 16.46H56.9959C56.9959 18.2945 57.3788 20.1317 58.2936 21.8305L67.0983 17.0895ZM66.9959 16.46C66.9959 16.0037 67.0841 15.8368 67.0983 15.8105L58.2936 11.0695C57.3744 12.7765 56.9959 14.6229 56.9959 16.46H66.9959ZM67.0983 15.8105C67.1107 15.7875 67.118 15.7774 67.1185 15.7767C67.1189 15.7762 67.1181 15.7774 67.1159 15.7799C67.1138 15.7824 67.1108 15.7858 67.107 15.7896C67.1032 15.7935 67.0991 15.7974 67.0948 15.8012C67.0906 15.8049 67.0868 15.808 67.0836 15.8104C67.0769 15.8155 67.0761 15.8153 67.0842 15.8108L62.2277 7.06921C60.5307 8.012 59.2019 9.38271 58.2936 11.0695L67.0983 15.8105ZM67.0842 15.8108C67.0962 15.8041 67.124 15.7899 67.1841 15.7754C67.2474 15.7601 67.3657 15.74 67.5559 15.74V5.74C65.7316 5.74 63.9078 6.13583 62.2277 7.06921L67.0842 15.8108ZM67.5559 15.74C67.8692 15.74 67.9652 15.8005 67.9718 15.8041L72.7801 7.03594C71.1333 6.13287 69.3494 5.74 67.5559 5.74V15.74ZM68.0013 15.8201C68.0094 15.8245 68.0064 15.8235 67.9957 15.8156C67.9849 15.8076 67.9706 15.7958 67.9554 15.7805C67.9402 15.7653 67.9283 15.7511 67.9203 15.7402C67.9124 15.7295 67.9114 15.7265 67.9158 15.7347L76.716 10.9853C75.7995 9.28711 74.4488 7.93639 72.7506 7.01989L68.0013 15.8201ZM67.9618 15.818C67.9629 15.8198 67.9726 15.836 67.9843 15.8837C67.9968 15.9346 68.0159 16.0409 68.0159 16.22H78.0159C78.0159 14.3991 77.6156 12.577 76.6701 10.902L67.9618 15.818ZM75.1151 15.3274C75.0777 13.3068 74.2707 11.3188 72.5566 9.87544L66.1153 17.5246C65.8292 17.2837 65.551 16.9422 65.3573 16.515C65.1684 16.0984 65.1209 15.7361 65.1168 15.5126L75.1151 15.3274ZM72.6144 9.92483C71.1111 8.61935 69.2934 8.04 67.4759 8.04V18.04C67.3378 18.04 67.1037 18.0182 66.8189 17.9171C66.5276 17.8138 66.2667 17.6568 66.0575 17.4752L72.6144 9.92483ZM67.4759 8.04C65.6638 8.04 63.8654 8.6351 62.3941 9.94295L69.0378 17.417C68.8195 17.611 68.5421 17.7835 68.2247 17.899C67.9131 18.0123 67.6479 18.04 67.4759 18.04V8.04ZM62.4008 9.93706C60.87 11.2929 60.1439 13.0493 59.9062 14.7129L69.8057 16.1271C69.7962 16.1932 69.7599 16.3843 69.6333 16.6404C69.5011 16.908 69.3003 17.1845 69.0311 17.4229L62.4008 9.93706ZM64.8559 20.42H70.1159V10.42H64.8559V20.42ZM80.8597 12.64H75.8597C75.8597 14.8782 77.3471 16.8437 79.501 17.4519C81.655 18.06 83.9507 17.1627 85.1213 15.2551L80.8597 12.64ZM82.2597 11.26L79.7896 6.91272C79.7752 6.9209 79.7609 6.92914 79.7466 6.93746L82.2597 11.26ZM84.2597 10.76H89.2597C89.2597 7.99858 87.0211 5.76 84.2597 5.76V10.76ZM84.2597 13.7V18.7C87.0211 18.7 89.2597 16.4614 89.2597 13.7L84.2597 13.7ZM81.5197 14.32L78.1509 10.6252C78.1326 10.6419 78.1144 10.6588 78.0963 10.6758L81.5197 14.32ZM80.8597 22V27C83.6211 27 85.8597 24.7614 85.8597 22H80.8597ZM78.0597 22H73.0597C73.0597 24.7614 75.2983 27 78.0597 27V22ZM78.0597 10.92V5.92C75.2983 5.92 73.0597 8.15858 73.0597 10.92L78.0597 10.92ZM80.8597 10.92H85.8597C85.8597 8.15858 83.6211 5.92 80.8597 5.92V10.92ZM85.1213 15.2551C85.1006 15.2889 85.0583 15.3482 84.9897 15.4159C84.9204 15.4842 84.8447 15.5408 84.7728 15.5825L79.7466 6.93746C78.4306 7.70259 77.3737 8.76094 76.5981 10.0249L85.1213 15.2551ZM84.7297 15.6073C84.6215 15.6688 84.5109 15.7111 84.4124 15.7357C84.3655 15.7474 84.3274 15.7536 84.3003 15.7568C84.2733 15.76 84.2592 15.76 84.2597 15.76V5.76C82.7416 5.76 81.2074 6.10719 79.7896 6.91272L84.7297 15.6073ZM79.2597 10.76V13.7H89.2597V10.76H79.2597ZM84.2597 8.7H83.5197V18.7H84.2597V8.7ZM83.5197 8.7C81.9304 8.7 79.8572 9.0695 78.1509 10.6252L84.8885 18.0148C84.0888 18.7438 83.3489 18.7 83.5197 18.7V8.7ZM78.0963 10.6758C76.1361 12.5171 75.8597 14.988 75.8597 16.48H85.8597C85.8597 16.295 85.8829 16.3808 85.8064 16.6311C85.7239 16.9012 85.4974 17.4435 84.9431 17.9642L78.0963 10.6758ZM75.8597 16.48V22H85.8597V16.48H75.8597ZM80.8597 17H78.0597V27H80.8597V17ZM83.0597 22V10.92H73.0597V22H83.0597ZM78.0597 15.92H80.8597V5.92H78.0597V15.92ZM75.8597 10.92V12.64H85.8597V10.92H75.8597ZM89.3856 11.32L85.0477 8.83361C85.0444 8.83936 85.0411 8.84511 85.0378 8.85088L89.3856 11.32ZM91.9256 8.78L94.3769 13.1379C94.3829 13.1345 94.3888 13.1312 94.3948 13.1278L91.9256 8.78ZM102.106 12.38V17.38C103.71 17.38 105.218 16.6098 106.158 15.3093C107.098 14.0088 107.357 12.3361 106.854 10.8123L102.106 12.38ZM98.8856 12.38L94.378 14.5437C95.2101 16.2772 96.9627 17.38 98.8856 17.38V12.38ZM97.5256 10.88L95.0125 15.2025C95.0268 15.2109 95.0412 15.2191 95.0556 15.2273L97.5256 10.88ZM93.3456 10.96L95.9047 15.2555C95.9135 15.2502 95.9224 15.2449 95.9312 15.2396L93.3456 10.96ZM91.8656 12.56L87.4281 10.2559C87.4164 10.2785 87.4049 10.3012 87.3935 10.3239L91.8656 12.56ZM91.8656 17.44L87.3767 19.6421C87.3934 19.6763 87.4106 19.7103 87.4281 19.7441L91.8656 17.44ZM93.3456 19.06L90.7201 23.3152C90.7552 23.3369 90.7906 23.3581 90.8263 23.3789L93.3456 19.06ZM97.5256 19.12L100.039 23.4425C100.049 23.4366 100.059 23.4306 100.069 23.4246L97.5256 19.12ZM98.8856 17.6V12.6C96.9627 12.6 95.2101 13.7028 94.378 15.4363L98.8856 17.6ZM102.106 17.6L106.858 19.1545C107.356 17.6316 107.094 15.9623 106.154 14.6651C105.213 13.3679 103.708 12.6 102.106 12.6V17.6ZM99.6456 20.94L102.452 25.0782L102.462 25.0711L99.6456 20.94ZM91.9256 21.22L89.4333 25.5545C89.4546 25.5668 89.4759 25.5789 89.4974 25.5908L91.9256 21.22ZM89.3856 18.68L85.0378 21.1491C85.0455 21.1626 85.0532 21.176 85.0609 21.1894L89.3856 18.68ZM93.4656 15C93.4656 14.3985 93.5916 14.0389 93.7334 13.7891L85.0378 8.85088C83.953 10.7611 83.4656 12.8548 83.4656 15H93.4656ZM93.7236 13.8064C93.9157 13.4713 94.1206 13.2821 94.3769 13.1379L89.4743 4.42212C87.5973 5.47793 86.1089 6.98207 85.0477 8.83361L93.7236 13.8064ZM94.3948 13.1278C94.6669 12.9733 95.0122 12.86 95.5456 12.86V2.86C93.4124 2.86 91.3444 3.36007 89.4565 4.43219L94.3948 13.1278ZM95.5456 12.86C96.2041 12.86 96.5674 13.0128 96.8289 13.1911L102.462 4.92886C100.377 3.50721 98.0071 2.86 95.5456 2.86V12.86ZM96.8289 13.1911C97.0486 13.3409 97.2179 13.524 97.3577 13.9477L106.854 10.8123C106.06 8.40928 104.589 6.37908 102.462 4.92886L96.8289 13.1911ZM102.106 7.38H98.8856V17.38H102.106V7.38ZM103.393 10.2163C102.677 8.72348 101.553 7.41764 99.9957 6.53272L95.0556 15.2273C94.8876 15.1318 94.731 15.0063 94.6015 14.8634C94.4747 14.7236 94.407 14.604 94.378 14.5437L103.393 10.2163ZM100.039 6.55746C98.5965 5.71894 97.0375 5.38 95.5256 5.38V15.38C95.5395 15.38 95.4856 15.3814 95.3829 15.3557C95.2767 15.3292 95.1469 15.2806 95.0125 15.2025L100.039 6.55746ZM95.5256 5.38C93.8836 5.38 92.248 5.78143 90.76 6.68042L95.9312 15.2396C95.8439 15.2923 95.7475 15.3326 95.6562 15.3569C95.5674 15.3805 95.5178 15.38 95.5256 15.38V5.38ZM90.7866 6.66449C89.3036 7.54797 88.1851 8.79799 87.4281 10.2559L96.3031 14.8641C96.2927 14.8841 96.2546 14.9504 96.1761 15.0352C96.096 15.1218 96.0014 15.1979 95.9047 15.2555L90.7866 6.66449ZM87.3935 10.3239C86.6359 11.8392 86.3456 13.447 86.3456 15H96.3456C96.3456 14.8417 96.3604 14.7576 96.3658 14.7322C96.3706 14.7096 96.367 14.7376 96.3378 14.7961L87.3935 10.3239ZM86.3456 15C86.3456 16.555 86.6415 18.1434 87.3767 19.6421L96.3546 15.2379C96.372 15.2735 96.3717 15.2855 96.3658 15.2578C96.3594 15.2277 96.3456 15.1463 96.3456 15H86.3456ZM87.4281 19.7441C88.1783 21.1887 89.2768 22.4247 90.7201 23.3152L95.9712 14.8048C96.0496 14.8532 96.1289 14.918 96.1971 14.9926C96.2639 15.0657 96.2957 15.1217 96.3031 15.1359L87.4281 19.7441ZM90.8263 23.3789C92.3043 24.2411 93.916 24.62 95.5256 24.62V14.62C95.5036 14.62 95.539 14.6178 95.6146 14.6372C95.6929 14.6573 95.7811 14.6921 95.865 14.7411L90.8263 23.3789ZM95.5256 24.62C97.0375 24.62 98.5965 24.2811 100.039 23.4425L95.0125 14.7975C95.1469 14.7194 95.2767 14.6708 95.3829 14.6443C95.4856 14.6186 95.5395 14.62 95.5256 14.62V24.62ZM100.069 23.4246C101.581 22.5314 102.683 21.2431 103.393 19.7637L94.378 15.4363C94.4042 15.3817 94.4655 15.2733 94.5794 15.146C94.6956 15.0162 94.8347 14.9024 94.982 14.8154L100.069 23.4246ZM98.8856 22.6H102.106V12.6H98.8856V22.6ZM97.3534 16.0455C97.2089 16.4872 97.0363 16.6675 96.8289 16.8089L102.462 25.0711C104.602 23.6125 106.069 21.5661 106.858 19.1545L97.3534 16.0455ZM96.8393 16.8018C96.6068 16.9595 96.2455 17.12 95.5456 17.12V27.12C97.9924 27.12 100.364 26.4938 102.452 25.0782L96.8393 16.8018ZM95.5456 17.12C94.9927 17.12 94.6328 17.0042 94.3538 16.8492L89.4974 25.5908C91.3785 26.6358 93.4318 27.12 95.5456 27.12V17.12ZM94.418 16.8855C94.1233 16.716 93.9037 16.5038 93.7103 16.1706L85.0609 21.1894C86.1209 23.0162 87.5946 24.4973 89.4333 25.5545L94.418 16.8855ZM93.7334 16.2109C93.5916 15.9611 93.4656 15.6015 93.4656 15H83.4656C83.4656 17.1452 83.953 19.2389 85.0378 21.1491L93.7334 16.2109ZM107.437 13.44L103.007 11.1225C102.997 11.1405 102.988 11.1585 102.979 11.1765L107.437 13.44ZM109.257 11.44L106.674 7.15906C106.663 7.16571 106.652 7.17241 106.641 7.17914L109.257 11.44ZM113.997 11.24L111.61 15.6331C111.623 15.6403 111.636 15.6473 111.649 15.6544L113.997 11.24ZM115.497 12.5L111.472 15.466C112.753 17.2049 115.006 17.9244 117.058 17.2501C119.11 16.5757 120.497 14.66 120.497 12.5H115.497ZM115.497 10.92V5.92C112.736 5.92 110.497 8.15858 110.497 10.92L115.497 10.92ZM118.317 10.92H123.317C123.317 8.15858 121.079 5.92 118.317 5.92V10.92ZM118.317 22V27C121.079 27 123.317 24.7614 123.317 22H118.317ZM115.497 22H110.497C110.497 24.7614 112.736 27 115.497 27V22ZM115.497 20.38H120.497C120.497 18.1929 119.076 16.2596 116.988 15.6074C114.9 14.9553 112.631 15.7357 111.386 17.534L115.497 20.38ZM113.997 21.68L116.345 26.0944C116.356 26.0884 116.368 26.0825 116.379 26.0765L113.997 21.68ZM109.257 21.46L106.587 25.6874C106.598 25.6944 106.609 25.7013 106.62 25.7082L109.257 21.46ZM107.437 19.44L102.965 21.6761C102.979 21.7033 102.993 21.7305 103.007 21.7575L107.437 19.44ZM115.097 14.72L110.699 17.0976C110.708 17.1145 110.717 17.1314 110.726 17.1482L115.097 14.72ZM114.017 13.6L111.482 17.9097C111.514 17.9284 111.546 17.9467 111.578 17.9647L114.017 13.6ZM111.117 13.58L108.622 9.24689L108.622 9.24689L111.117 13.58ZM110.037 14.7L105.689 12.232C105.681 12.2452 105.674 12.2585 105.666 12.2718L110.037 14.7ZM110.037 18.18L105.613 20.5087C105.637 20.5556 105.663 20.602 105.689 20.648L110.037 18.18ZM111.117 19.32L108.526 23.596C108.544 23.6073 108.563 23.6186 108.582 23.6297L111.117 19.32ZM114.017 19.34L116.456 23.7047C116.488 23.6867 116.52 23.6684 116.552 23.6497L114.017 19.34ZM115.097 18.22L119.468 20.6482C119.477 20.6314 119.487 20.6145 119.496 20.5976L115.097 18.22ZM111.777 16.42C111.777 15.9664 111.862 15.7689 111.896 15.7035L102.979 11.1765C102.132 12.8444 101.777 14.6336 101.777 16.42H111.777ZM111.868 15.7575C111.891 15.7135 111.908 15.6858 111.919 15.6708C111.929 15.6559 111.933 15.6518 111.93 15.6552C111.927 15.6587 111.919 15.6665 111.908 15.6763C111.896 15.6861 111.884 15.6945 111.874 15.7009L106.641 7.17914C105.039 8.16297 103.837 9.53593 103.007 11.1225L111.868 15.7575ZM111.841 15.7209C111.841 15.7209 111.84 15.7212 111.839 15.7216C111.838 15.7221 111.837 15.7228 111.836 15.7236C111.832 15.7252 111.828 15.7273 111.823 15.7295C111.818 15.7317 111.812 15.7338 111.807 15.7358C111.801 15.7378 111.796 15.7393 111.791 15.7405C111.782 15.7431 111.779 15.7432 111.784 15.7426C111.789 15.7419 111.806 15.74 111.837 15.74V5.74C110.026 5.74 108.265 6.19887 106.674 7.15906L111.841 15.7209ZM111.837 15.74C111.915 15.74 111.92 15.7479 111.87 15.7362C111.816 15.7237 111.722 15.6942 111.61 15.6331L116.385 6.84688C114.915 6.04785 113.344 5.74 111.837 5.74V15.74ZM111.649 15.6544C111.68 15.6708 111.666 15.6672 111.626 15.6335C111.585 15.5986 111.529 15.5429 111.472 15.466L119.522 9.534C118.652 8.3523 117.547 7.46509 116.345 6.82564L111.649 15.6544ZM120.497 12.5V10.92H110.497V12.5H120.497ZM115.497 15.92H118.317V5.92H115.497V15.92ZM113.317 10.92V22H123.317V10.92H113.317ZM118.317 17H115.497V27H118.317V17ZM120.497 22V20.38H110.497V22H120.497ZM111.386 17.534C111.456 17.4338 111.525 17.3617 111.578 17.3166C111.628 17.2731 111.648 17.2661 111.616 17.2835L116.379 26.0765C117.604 25.4125 118.738 24.4825 119.608 23.226L111.386 17.534ZM111.649 17.2656C111.743 17.2157 111.821 17.1915 111.864 17.1815C111.905 17.1722 111.895 17.18 111.817 17.18V27.18C113.327 27.18 114.885 26.8711 116.345 26.0944L111.649 17.2656ZM111.817 17.18C111.799 17.18 111.793 17.1788 111.798 17.1795C111.803 17.1802 111.815 17.1822 111.831 17.1867C111.847 17.1913 111.863 17.197 111.876 17.2029C111.889 17.2087 111.895 17.2126 111.894 17.2118L106.62 25.7082C108.206 26.6926 109.977 27.18 111.817 27.18V17.18ZM111.927 17.2326C111.93 17.2344 111.935 17.238 111.941 17.2426C111.946 17.2472 111.948 17.2497 111.947 17.2481C111.946 17.2468 111.915 17.2132 111.868 17.1225L103.007 21.7575C103.831 23.3339 105.018 24.6961 106.587 25.6874L111.927 17.2326ZM111.909 17.2039C111.866 17.1167 111.777 16.8953 111.777 16.42H101.777C101.777 18.2114 102.129 20.0033 102.965 21.6761L111.909 17.2039ZM120.497 16.46C120.497 15.1304 120.235 13.6718 119.468 12.2918L110.726 17.1482C110.493 16.7282 110.497 16.4296 110.497 16.46H120.497ZM119.496 12.3424C118.815 11.0836 117.804 9.98867 116.456 9.23528L111.578 17.9647C111.377 17.8523 111.189 17.7078 111.028 17.5407C110.869 17.3756 110.764 17.2176 110.699 17.0976L119.496 12.3424ZM116.552 9.29033C115.34 8.57711 113.979 8.2 112.557 8.2V18.2C112.385 18.2 112.191 18.1771 111.991 18.1223C111.791 18.0675 111.62 17.9905 111.482 17.9097L116.552 9.29033ZM112.557 8.2C111.184 8.2 109.84 8.5457 108.622 9.24689L113.612 17.9131C113.458 18.0016 113.279 18.0777 113.083 18.1295C112.887 18.1811 112.707 18.2 112.557 18.2V8.2ZM108.622 9.24689C107.321 9.996 106.356 11.0559 105.689 12.232L114.386 17.168C114.278 17.3574 114.033 17.6707 113.612 17.9131L108.622 9.24689ZM105.666 12.2718C104.907 13.6381 104.637 15.0845 104.637 16.42H114.637C114.637 16.4186 114.637 16.4927 114.607 16.6226C114.576 16.7564 114.516 16.9335 114.408 17.1282L105.666 12.2718ZM104.637 16.42C104.637 17.7644 104.91 19.1743 105.613 20.5087L114.462 15.8513C114.541 16.0025 114.588 16.142 114.613 16.2519C114.637 16.3588 114.637 16.4201 114.637 16.42H104.637ZM105.689 20.648C106.346 21.8062 107.282 22.8424 108.526 23.596L113.709 15.044C114.072 15.2643 114.288 15.5404 114.386 15.712L105.689 20.648ZM108.582 23.6297C109.773 24.3303 111.124 24.72 112.557 24.72V14.72C112.748 14.72 112.952 14.746 113.155 14.8024C113.357 14.8585 113.525 14.9353 113.652 15.0103L108.582 23.6297ZM112.557 24.72C113.93 24.72 115.256 24.3752 116.456 23.7047L111.578 14.9753C111.711 14.9012 111.871 14.8335 112.053 14.7862C112.235 14.7389 112.407 14.72 112.557 14.72V24.72ZM116.552 23.6497C117.809 22.9105 118.788 21.872 119.468 20.6482L110.726 15.7918C110.792 15.6745 110.889 15.533 111.028 15.3893C111.167 15.2447 111.323 15.1238 111.482 15.0303L116.552 23.6497ZM119.496 20.5976C120.233 19.234 120.497 17.7951 120.497 16.46H110.497C110.497 16.4849 110.495 16.2193 110.699 15.8424L119.496 20.5976ZM127.312 13.22V8.22C124.55 8.22 122.312 10.4586 122.312 13.22L127.312 13.22ZM127.572 19.4L124.036 22.9355C124.127 23.026 124.221 23.113 124.318 23.1963L127.572 19.4ZM129.792 19.64H134.792C134.792 16.8786 132.553 14.64 129.792 14.64V19.64ZM129.792 22V27C132.553 27 134.792 24.7614 134.792 22H129.792ZM124.492 13.22H129.492C129.492 10.4586 127.253 8.22 124.492 8.22V13.22ZM123.172 13.22H118.172C118.172 15.9814 120.41 18.22 123.172 18.22V13.22ZM123.172 10.92V5.92C120.41 5.92 118.172 8.15858 118.172 10.92L123.172 10.92ZM124.492 10.92V15.92C127.253 15.92 129.492 13.6814 129.492 10.92L124.492 10.92ZM124.492 8.18V3.18C121.73 3.18 119.492 5.41858 119.492 8.18L124.492 8.18ZM127.312 8.18H132.312C132.312 5.41858 130.073 3.18 127.312 3.18V8.18ZM127.312 10.92H122.312C122.312 13.6814 124.55 15.92 127.312 15.92V10.92ZM129.792 10.92H134.792C134.792 8.15858 132.553 5.92 129.792 5.92V10.92ZM129.792 13.22V18.22C132.553 18.22 134.792 15.9814 134.792 13.22L129.792 13.22ZM122.312 13.22V18.58H132.312V13.22H122.312ZM122.312 18.58C122.312 19.5982 122.534 21.4332 124.036 22.9355L131.107 15.8645C132.263 17.0202 132.312 18.3084 132.312 18.58H122.312ZM124.318 23.1963C125.873 24.5295 127.669 24.64 128.492 24.64V14.64C128.568 14.64 128.831 14.6447 129.204 14.7419C129.58 14.84 130.201 15.0683 130.826 15.6037L124.318 23.1963ZM128.492 24.64H129.792V14.64H128.492V24.64ZM124.792 19.64V22H134.792V19.64H124.792ZM129.792 17H128.032V27H129.792V17ZM128.032 17C127.587 17 128.179 16.8908 128.861 17.5542C129.571 18.2434 129.492 18.899 129.492 18.56H119.492C119.492 20.5143 120.003 22.8899 121.892 24.7258C123.755 26.5359 126.117 27 128.032 27V17ZM129.492 18.56V13.22H119.492V18.56H129.492ZM124.492 8.22H123.172V18.22H124.492V8.22ZM128.172 13.22V10.92H118.172V13.22H128.172ZM123.172 15.92H124.492V5.92H123.172V15.92ZM129.492 10.92V8.18H119.492V10.92H129.492ZM124.492 13.18H127.312V3.18H124.492V13.18ZM122.312 8.18V10.92H132.312V8.18H122.312ZM127.312 15.92H129.792V5.92H127.312V15.92ZM124.792 10.92V13.22H134.792V10.92H124.792ZM129.792 8.22H127.312V18.22H129.792V8.22ZM134.746 13.44L130.315 11.1225C130.306 11.1405 130.297 11.1585 130.287 11.1765L134.746 13.44ZM136.566 11.44L133.982 7.15906C133.971 7.16571 133.96 7.17241 133.949 7.17914L136.566 11.44ZM141.306 11.24L138.918 15.6331C138.931 15.6403 138.945 15.6473 138.958 15.6544L141.306 11.24ZM142.806 12.5L138.781 15.466C140.062 17.2049 142.315 17.9244 144.367 17.2501C146.419 16.5757 147.806 14.66 147.806 12.5H142.806ZM142.806 10.92V5.92C140.044 5.92 137.806 8.15858 137.806 10.92L142.806 10.92ZM145.626 10.92H150.626C150.626 8.15858 148.387 5.92 145.626 5.92V10.92ZM145.626 22V27C148.387 27 150.626 24.7614 150.626 22H145.626ZM142.806 22H137.806C137.806 24.7614 140.044 27 142.806 27V22ZM142.806 20.38H147.806C147.806 18.1929 146.384 16.2596 144.297 15.6074C142.209 14.9553 139.94 15.7357 138.695 17.534L142.806 20.38ZM141.306 21.68L143.654 26.0944C143.665 26.0884 143.676 26.0825 143.687 26.0765L141.306 21.68ZM136.566 21.46L133.896 25.6874C133.907 25.6944 133.918 25.7013 133.929 25.7082L136.566 21.46ZM134.746 19.44L130.274 21.6761C130.287 21.7033 130.301 21.7305 130.315 21.7575L134.746 19.44ZM142.406 14.72L138.007 17.0976C138.016 17.1145 138.026 17.1314 138.035 17.1482L142.406 14.72ZM141.326 13.6L138.791 17.9097C138.822 17.9284 138.854 17.9467 138.887 17.9647L141.326 13.6ZM138.426 13.58L135.931 9.24689L135.931 9.24689L138.426 13.58ZM137.346 14.7L132.997 12.232C132.99 12.2452 132.982 12.2585 132.975 12.2718L137.346 14.7ZM137.346 18.18L132.921 20.5087C132.946 20.5556 132.971 20.602 132.997 20.648L137.346 18.18ZM138.426 19.32L135.834 23.596C135.853 23.6073 135.872 23.6186 135.891 23.6297L138.426 19.32ZM141.326 19.34L143.765 23.7047C143.797 23.6867 143.829 23.6684 143.861 23.6497L141.326 19.34ZM142.406 18.22L146.777 20.6482C146.786 20.6314 146.795 20.6145 146.804 20.5976L142.406 18.22ZM139.086 16.42C139.086 15.9664 139.171 15.7689 139.204 15.7035L130.287 11.1765C129.441 12.8444 129.086 14.6336 129.086 16.42H139.086ZM139.176 15.7575C139.199 15.7135 139.217 15.6858 139.227 15.6708C139.238 15.6559 139.242 15.6518 139.239 15.6552C139.236 15.6587 139.228 15.6665 139.216 15.6763C139.204 15.6861 139.192 15.6945 139.182 15.7009L133.949 7.17914C132.347 8.16297 131.145 9.53593 130.315 11.1225L139.176 15.7575ZM139.149 15.7209C139.149 15.7209 139.149 15.7212 139.148 15.7216C139.147 15.7221 139.146 15.7228 139.144 15.7236C139.141 15.7252 139.137 15.7273 139.132 15.7295C139.126 15.7317 139.121 15.7338 139.115 15.7358C139.11 15.7378 139.105 15.7393 139.1 15.7405C139.091 15.7431 139.087 15.7432 139.092 15.7426C139.098 15.7419 139.115 15.74 139.146 15.74V5.74C137.334 5.74 135.574 6.19887 133.982 7.15906L139.149 15.7209ZM139.146 15.74C139.224 15.74 139.229 15.7479 139.178 15.7362C139.124 15.7237 139.031 15.6942 138.918 15.6331L143.693 6.84688C142.223 6.04785 140.653 5.74 139.146 5.74V15.74ZM138.958 15.6544C138.989 15.6708 138.975 15.6672 138.935 15.6335C138.893 15.5986 138.837 15.5429 138.781 15.466L146.831 9.534C145.96 8.3523 144.856 7.46509 143.654 6.82564L138.958 15.6544ZM147.806 12.5V10.92H137.806V12.5H147.806ZM142.806 15.92H145.626V5.92H142.806V15.92ZM140.626 10.92V22H150.626V10.92H140.626ZM145.626 17H142.806V27H145.626V17ZM147.806 22V20.38H137.806V22H147.806ZM138.695 17.534C138.764 17.4338 138.834 17.3617 138.886 17.3166C138.936 17.2731 138.956 17.2661 138.924 17.2835L143.687 26.0765C144.913 25.4125 146.047 24.4825 146.917 23.226L138.695 17.534ZM138.958 17.2656C139.052 17.2157 139.129 17.1915 139.173 17.1815C139.214 17.1722 139.203 17.18 139.126 17.18V27.18C140.636 27.18 142.194 26.8711 143.654 26.0944L138.958 17.2656ZM139.126 17.18C139.107 17.18 139.101 17.1788 139.106 17.1795C139.112 17.1802 139.123 17.1822 139.14 17.1867C139.156 17.1913 139.171 17.197 139.185 17.2029C139.198 17.2087 139.204 17.2126 139.203 17.2118L133.929 25.7082C135.515 26.6926 137.286 27.18 139.126 27.18V17.18ZM139.236 17.2326C139.239 17.2344 139.244 17.238 139.249 17.2426C139.255 17.2472 139.257 17.2497 139.255 17.2481C139.254 17.2468 139.224 17.2132 139.176 17.1225L130.315 21.7575C131.14 23.3339 132.326 24.6961 133.896 25.6874L139.236 17.2326ZM139.218 17.2039C139.174 17.1167 139.086 16.8953 139.086 16.42H129.086C129.086 18.2114 129.437 20.0033 130.274 21.6761L139.218 17.2039ZM147.806 16.46C147.806 15.1304 147.543 13.6718 146.777 12.2918L138.035 17.1482C137.802 16.7282 137.806 16.4296 137.806 16.46H147.806ZM146.804 12.3424C146.124 11.0836 145.113 9.98867 143.765 9.23528L138.887 17.9647C138.685 17.8523 138.498 17.7078 138.337 17.5407C138.177 17.3756 138.072 17.2176 138.007 17.0976L146.804 12.3424ZM143.861 9.29033C142.648 8.57711 141.288 8.2 139.866 8.2V18.2C139.693 18.2 139.5 18.1771 139.3 18.1223C139.1 18.0675 138.928 17.9905 138.791 17.9097L143.861 9.29033ZM139.866 8.2C138.492 8.2 137.149 8.5457 135.931 9.24689L140.921 17.9131C140.767 18.0016 140.588 18.0777 140.392 18.1295C140.196 18.1811 140.016 18.2 139.866 18.2V8.2ZM135.931 9.24689C134.63 9.996 133.665 11.0559 132.997 12.232L141.694 17.168C141.587 17.3574 141.342 17.6707 140.921 17.9131L135.931 9.24689ZM132.975 12.2718C132.216 13.6381 131.946 15.0845 131.946 16.42H141.946C141.946 16.4186 141.946 16.4927 141.916 16.6226C141.885 16.7564 141.825 16.9335 141.717 17.1282L132.975 12.2718ZM131.946 16.42C131.946 17.7644 132.219 19.1743 132.921 20.5087L141.77 15.8513C141.85 16.0025 141.896 16.142 141.921 16.2519C141.946 16.3588 141.946 16.4201 141.946 16.42H131.946ZM132.997 20.648C133.655 21.8062 134.591 22.8424 135.834 23.596L141.017 15.044C141.381 15.2643 141.597 15.5404 141.694 15.712L132.997 20.648ZM135.891 23.6297C137.082 24.3303 138.433 24.72 139.866 24.72V14.72C140.057 14.72 140.261 14.746 140.464 14.8024C140.666 14.8585 140.833 14.9353 140.961 15.0103L135.891 23.6297ZM139.866 24.72C141.239 24.72 142.565 24.3752 143.765 23.7047L138.887 14.9753C139.019 14.9012 139.18 14.8335 139.361 14.7862C139.543 14.7389 139.715 14.72 139.866 14.72V24.72ZM143.861 23.6497C145.118 22.9105 146.097 21.872 146.777 20.6482L138.035 15.7918C138.1 15.6745 138.198 15.533 138.337 15.3893C138.476 15.2447 138.632 15.1238 138.791 15.0303L143.861 23.6497ZM146.804 20.5976C147.541 19.234 147.806 17.7951 147.806 16.46H137.806C137.806 16.4849 137.804 16.2193 138.007 15.8424L146.804 20.5976ZM154.16 7.2H159.16C159.16 4.43858 156.922 2.2 154.16 2.2V7.2ZM154.16 22V27C156.922 27 159.16 24.7614 159.16 22H154.16ZM151.36 22H146.36C146.36 24.7614 148.599 27 151.36 27V22ZM151.36 7.2V2.2C148.599 2.2 146.36 4.43858 146.36 7.2L151.36 7.2ZM149.16 7.2V22H159.16V7.2H149.16ZM154.16 17H151.36V27H154.16V17ZM156.36 22V7.2H146.36V22H156.36ZM151.36 12.2H154.16V2.2H151.36V12.2ZM170.527 10.92L175.136 12.8575C175.785 11.3138 175.618 9.54776 174.691 8.15301C173.765 6.75826 172.201 5.92 170.527 5.92V10.92ZM163.667 27.24V32.24C165.68 32.24 167.496 31.0331 168.276 29.1775L163.667 27.24ZM160.687 27.24L156.102 25.2464C155.43 26.792 155.581 28.5721 156.505 29.9815C157.43 31.3909 159.002 32.24 160.687 32.24V27.24ZM163.087 21.72L167.672 23.7136C168.211 22.474 168.225 21.069 167.711 19.8188L163.087 21.72ZM158.647 10.92V5.92C156.979 5.92 155.421 6.75134 154.493 8.13664C153.565 9.52194 153.388 11.2788 154.022 12.8212L158.647 10.92ZM161.787 10.92L166.477 9.18698C165.751 7.22368 163.88 5.92 161.787 5.92V10.92ZM164.647 18.66L159.957 20.393C160.681 22.3524 162.547 23.6552 164.636 23.66C166.724 23.6647 168.596 22.3704 169.329 20.4143L164.647 18.66ZM167.547 10.92V5.92C165.462 5.92 163.596 7.2135 162.865 9.16571L167.547 10.92ZM165.918 8.98249L159.058 25.3025L168.276 29.1775L175.136 12.8575L165.918 8.98249ZM163.667 22.24H160.687V32.24H163.667V22.24ZM165.272 29.2336L167.672 23.7136L158.502 19.7264L156.102 25.2464L165.272 29.2336ZM167.711 19.8188L163.271 9.01884L154.022 12.8212L158.462 23.6212L167.711 19.8188ZM158.647 15.92H161.787V5.92H158.647V15.92ZM157.097 12.653L159.957 20.393L169.337 16.927L166.477 9.18698L157.097 12.653ZM169.329 20.4143L172.229 12.6743L162.865 9.16571L159.965 16.9057L169.329 20.4143ZM167.547 15.92H170.527V5.92H167.547V15.92ZM176.836 21.7L174.736 26.2373C174.759 26.2481 174.782 26.2587 174.806 26.2691L176.836 21.7ZM175.116 20.36L171.093 23.3293C171.108 23.3497 171.124 23.37 171.139 23.3902L175.116 20.36ZM174.436 18.5V13.5C173.059 13.5 171.743 14.0679 170.798 15.0698C169.854 16.0718 169.364 17.4189 169.445 18.7936L174.436 18.5ZM177.256 18.5L182.218 17.8798C181.905 15.3777 179.778 13.5 177.256 13.5V18.5ZM177.876 19.56L174.807 23.5068C174.83 23.5247 174.853 23.5425 174.876 23.56L177.876 19.56ZM180.496 19.66L177.641 15.5555C177.612 15.5755 177.584 15.5957 177.555 15.6163L180.496 19.66ZM180.396 18.04L178.095 22.4788C178.159 22.5123 178.225 22.5444 178.291 22.575L180.396 18.04ZM178.656 17.44L179.945 12.6088C179.907 12.5988 179.87 12.5893 179.832 12.5802L178.656 17.44ZM176.616 16.82L174.718 21.4458C174.732 21.4514 174.746 21.4569 174.759 21.4624L176.616 16.82ZM175.256 15.84L171.444 19.0749C171.462 19.0969 171.481 19.1188 171.5 19.1406L175.256 15.84ZM175.216 12.38L171.14 9.48396C171.123 9.50802 171.106 9.53223 171.09 9.55658L175.216 12.38ZM176.736 11.18L174.723 6.60343C174.711 6.60846 174.7 6.61353 174.688 6.61865L176.736 11.18ZM182.236 11.74L179.004 15.5545C179.016 15.5652 179.029 15.5759 179.042 15.5864L182.236 11.74ZM183.536 14.4V19.4C184.924 19.4 186.25 18.8231 187.196 17.8073C188.141 16.7915 188.622 15.4282 188.524 14.0438L183.536 14.4ZM180.856 14.4L175.877 14.8527C176.111 17.4281 178.27 19.4 180.856 19.4V14.4ZM180.296 13.36L177.095 17.2011C177.153 17.249 177.211 17.2956 177.271 17.3408L180.296 13.36ZM177.816 13.24L175.043 9.07975C175.011 9.10076 174.98 9.12212 174.949 9.14384L177.816 13.24ZM177.976 14.88L175.615 19.2874C175.657 19.3096 175.698 19.3311 175.74 19.3521L177.976 14.88ZM179.716 15.46L178.484 20.3058C178.491 20.3075 178.497 20.3091 178.504 20.3107L179.716 15.46ZM183.036 17.08L179.177 20.2585C179.211 20.2998 179.245 20.3405 179.28 20.3806L183.036 17.08ZM183.636 18.84H188.636C188.636 18.8097 188.636 18.7794 188.635 18.7491L183.636 18.84ZM183.096 20.56L179.02 17.664C179.003 17.688 178.986 17.7122 178.97 17.7366L183.096 20.56ZM181.576 21.76L183.546 26.3557C183.561 26.3494 183.575 26.343 183.59 26.3366L181.576 21.76ZM179.276 17.18C179.117 17.18 179.012 17.166 178.951 17.154C178.892 17.1424 178.868 17.1315 178.867 17.1309L174.806 26.2691C176.254 26.9129 177.775 27.18 179.276 27.18V17.18ZM178.937 17.1627C178.891 17.1415 178.899 17.1397 178.939 17.1707C178.981 17.2033 179.038 17.2565 179.093 17.3298L171.139 23.3902C172.119 24.6763 173.372 25.6059 174.736 26.2373L178.937 17.1627ZM179.139 17.3907C179.2 17.4731 179.273 17.597 179.332 17.7582C179.391 17.9201 179.42 18.0758 179.428 18.2064L169.445 18.7936C169.543 20.4626 170.118 22.008 171.093 23.3293L179.139 17.3907ZM174.436 23.5H177.256V13.5H174.436V23.5ZM172.295 19.1202C172.523 20.9487 173.47 22.4674 174.807 23.5068L180.946 15.6132C181.211 15.8192 181.515 16.1289 181.767 16.5606C182.023 16.9977 182.165 17.4558 182.218 17.8798L172.295 19.1202ZM174.876 23.56C176.257 24.5957 177.82 24.98 179.256 24.98V14.98C179.599 14.98 180.242 15.0843 180.876 15.56L174.876 23.56ZM179.256 24.98C180.372 24.98 181.972 24.7691 183.437 23.7037L177.555 15.6163C178.434 14.9775 179.207 14.98 179.256 14.98V24.98ZM183.352 23.7645C184.813 22.7478 185.956 21.0273 185.956 18.84H175.956C175.956 18.2063 176.111 17.5069 176.481 16.8487C176.838 16.2111 177.291 15.7986 177.641 15.5555L183.352 23.7645ZM185.956 18.84C185.956 17.7478 185.656 16.565 184.912 15.5027C184.197 14.4806 183.279 13.8659 182.502 13.505L178.291 22.575C177.887 22.3874 177.249 21.9927 176.72 21.2373C176.163 20.4417 175.956 19.5722 175.956 18.84H185.956ZM182.698 13.6012C181.831 13.1516 180.812 12.8401 179.945 12.6088L177.368 22.2712C177.69 22.357 177.915 22.4264 178.061 22.4769C178.133 22.5015 178.171 22.5167 178.183 22.5216C178.197 22.5273 178.163 22.5141 178.095 22.4788L182.698 13.6012ZM179.832 12.5802C179.138 12.4124 178.707 12.2712 178.473 12.1776L174.759 21.4624C175.592 21.7955 176.521 22.0676 177.48 22.2998L179.832 12.5802ZM178.514 12.1942C178.615 12.2355 178.716 12.2911 178.809 12.3585C178.902 12.4253 178.969 12.4905 179.012 12.5394L171.5 19.1406C172.374 20.1345 173.455 20.9275 174.718 21.4458L178.514 12.1942ZM179.069 12.6051C179.664 13.3068 179.696 13.9768 179.696 14.06H169.696C169.696 15.6366 170.102 17.4932 171.444 19.0749L179.069 12.6051ZM179.696 14.06C179.696 14.2312 179.671 14.4378 179.603 14.6584C179.534 14.879 179.439 15.0631 179.343 15.2034L171.09 9.55658C170.175 10.894 169.696 12.438 169.696 14.06H179.696ZM179.292 15.276C179.186 15.425 179.07 15.5413 178.964 15.6244C178.862 15.7051 178.792 15.7378 178.784 15.7413L174.688 6.61865C173.348 7.22029 172.09 8.14706 171.14 9.48396L179.292 15.276ZM178.75 15.7566C178.655 15.7982 178.723 15.74 179.076 15.74V5.74C177.643 5.74 176.15 5.97517 174.723 6.60343L178.75 15.7566ZM179.076 15.74C179.321 15.74 179.393 15.7714 179.348 15.757C179.323 15.7493 179.274 15.7311 179.209 15.6956C179.143 15.6597 179.072 15.6125 179.004 15.5545L185.469 7.92552C183.55 6.29949 181.241 5.74 179.076 5.74V15.74ZM179.042 15.5864C178.911 15.4776 178.765 15.3063 178.659 15.0904C178.558 14.8843 178.548 14.7479 178.549 14.7562L188.524 14.0438C188.357 11.7121 187.374 9.50756 185.431 7.89355L179.042 15.5864ZM183.536 9.4H180.856V19.4H183.536V9.4ZM185.836 13.9473C185.677 12.1962 184.841 10.5336 183.322 9.37919L177.271 17.3408C176.905 17.0631 176.55 16.6755 176.284 16.1805C176.021 15.6916 175.91 15.2223 175.877 14.8527L185.836 13.9473ZM183.497 9.51889C182.03 8.29665 180.343 7.96 178.996 7.96V17.96C178.743 17.96 177.922 17.89 177.095 17.2011L183.497 9.51889ZM178.996 7.96C177.97 7.96 176.462 8.13365 175.043 9.07975L180.59 17.4003C180.148 17.6948 179.743 17.8314 179.476 17.8949C179.213 17.9572 179.038 17.96 178.996 17.96V7.96ZM174.949 9.14384C173.308 10.2926 172.416 12.1019 172.416 14.02H182.416C182.416 14.5343 182.309 15.1868 181.965 15.8566C181.62 16.5308 181.14 17.0166 180.684 17.3362L174.949 9.14384ZM172.416 14.02C172.416 15.0832 172.696 16.2143 173.366 17.2434C174.015 18.2401 174.862 18.8837 175.615 19.2874L180.337 10.4726C180.718 10.6763 181.284 11.0766 181.746 11.7866C182.23 12.529 182.416 13.3301 182.416 14.02H172.416ZM175.74 19.3521C176.608 19.786 177.611 20.0838 178.484 20.3058L180.948 10.6142C180.637 10.535 180.417 10.4698 180.272 10.4216C180.114 10.3687 180.115 10.3591 180.212 10.4079L175.74 19.3521ZM178.504 20.3107C179.167 20.4766 179.578 20.6153 179.798 20.7058L183.594 11.4542C182.775 11.118 181.865 10.8434 180.929 10.6093L178.504 20.3107ZM179.798 20.7058C179.673 20.6544 179.547 20.584 179.431 20.4972C179.315 20.411 179.232 20.3254 179.177 20.2585L186.896 13.9015C186.022 12.8408 184.912 11.9949 183.594 11.4542L179.798 20.7058ZM179.28 20.3806C179.016 20.0794 178.843 19.7544 178.744 19.4634C178.649 19.1857 178.638 18.9901 178.637 18.9309L188.635 18.7491C188.606 17.1399 188.141 15.3149 186.792 13.7794L179.28 20.3806ZM178.636 18.84C178.636 18.6851 178.659 18.4809 178.731 18.2523C178.803 18.0223 178.908 17.8227 179.02 17.664L187.172 23.456C188.152 22.0769 188.636 20.4849 188.636 18.84H178.636ZM178.97 17.7366C179.096 17.5521 179.235 17.4124 179.358 17.3156C179.476 17.2221 179.557 17.1859 179.563 17.1834L183.59 26.3366C184.95 25.7383 186.258 24.7935 187.223 23.3834L178.97 17.7366ZM179.607 17.1643C179.705 17.1221 179.636 17.18 179.276 17.18V27.18C180.677 27.18 182.141 26.9579 183.546 26.3557L179.607 17.1643ZM192.195 13.22V8.22C189.433 8.22 187.195 10.4586 187.195 13.22L192.195 13.22ZM192.455 19.4L188.919 22.9355C189.01 23.026 189.104 23.113 189.201 23.1963L192.455 19.4ZM194.675 19.64H199.675C199.675 16.8786 197.436 14.64 194.675 14.64V19.64ZM194.675 22V27C197.436 27 199.675 24.7614 199.675 22H194.675ZM189.375 13.22H194.375C194.375 10.4586 192.136 8.22 189.375 8.22V13.22ZM188.055 13.22H183.055C183.055 15.9814 185.293 18.22 188.055 18.22V13.22ZM188.055 10.92V5.92C185.293 5.92 183.055 8.15858 183.055 10.92L188.055 10.92ZM189.375 10.92V15.92C192.136 15.92 194.375 13.6814 194.375 10.92L189.375 10.92ZM189.375 8.18V3.18C186.613 3.18 184.375 5.41858 184.375 8.18L189.375 8.18ZM192.195 8.18H197.195C197.195 5.41858 194.956 3.18 192.195 3.18V8.18ZM192.195 10.92H187.195C187.195 13.6814 189.433 15.92 192.195 15.92V10.92ZM194.675 10.92H199.675C199.675 8.15858 197.436 5.92 194.675 5.92V10.92ZM194.675 13.22V18.22C197.436 18.22 199.675 15.9814 199.675 13.22L194.675 13.22ZM187.195 13.22V18.58H197.195V13.22H187.195ZM187.195 18.58C187.195 19.5982 187.417 21.4332 188.919 22.9355L195.99 15.8645C197.146 17.0202 197.195 18.3084 197.195 18.58H187.195ZM189.201 23.1963C190.756 24.5295 192.552 24.64 193.375 24.64V14.64C193.451 14.64 193.714 14.6447 194.087 14.7419C194.463 14.84 195.084 15.0683 195.709 15.6037L189.201 23.1963ZM193.375 24.64H194.675V14.64H193.375V24.64ZM189.675 19.64V22H199.675V19.64H189.675ZM194.675 17H192.915V27H194.675V17ZM192.915 17C192.47 17 193.062 16.8908 193.744 17.5542C194.453 18.2434 194.375 18.899 194.375 18.56H184.375C184.375 20.5143 184.886 22.8899 186.775 24.7258C188.638 26.5359 190.999 27 192.915 27V17ZM194.375 18.56V13.22H184.375V18.56H194.375ZM189.375 8.22H188.055V18.22H189.375V8.22ZM193.055 13.22V10.92H183.055V13.22H193.055ZM188.055 15.92H189.375V5.92H188.055V15.92ZM194.375 10.92V8.18H184.375V10.92H194.375ZM189.375 13.18H192.195V3.18H189.375V13.18ZM187.195 8.18V10.92H197.195V8.18H187.195ZM192.195 15.92H194.675V5.92H192.195V15.92ZM189.675 10.92V13.22H199.675V10.92H189.675ZM194.675 8.22H192.195V18.22H194.675V8.22Z" fill="#362B0E" mask="url(#path-1-outside-1_114_30)"/>
</svg>
