<svg width="109" height="36" viewBox="0 0 109 36" fill="none" xmlns="http://www.w3.org/2000/svg">
<g clip-path="url(#clip0_292_133)">
<path d="M34.0391 5.56448C33.8394 4.48886 33.4499 3.50825 32.9094 2.72035C32.3689 1.93245 31.6962 1.36474 30.9583 1.07379C28.257 0 17.3859 0 17.3859 0C17.3859 0 6.51443 0.0325862 3.81349 1.10638C3.07565 1.39738 2.40299 1.9651 1.86251 2.753C1.32203 3.5409 0.932579 4.52148 0.732959 5.59707C-0.0841152 12.5938 -0.401109 23.2544 0.755313 29.9709C0.954932 31.0465 1.34438 32.0271 1.88486 32.815C2.42535 33.6029 3.09801 34.1706 3.83584 34.4616C6.537 35.5354 17.4083 35.5354 17.4083 35.5354C17.4083 35.5354 28.2795 35.5354 30.9807 34.4616C31.7185 34.1706 32.3912 33.6029 32.9316 32.815C33.4721 32.0271 33.8616 31.0465 34.0612 29.9709C34.9228 22.9646 35.1885 12.3104 34.0388 5.56479" fill="#FF0000"/>
<path d="M13.9258 25.3824L22.9443 17.7678L13.9258 10.1528V25.3824Z" fill="white"/>
<path d="M104.58 10.3159C105.763 10.3159 106.656 10.6412 107.281 11.2594C107.906 11.8778 108.352 12.8541 108.62 14.1884C108.888 15.5226 109 17.3446 109 19.6877V23.4953H103.263V24.6666L103.352 27.8883C103.419 28.6042 103.531 29.125 103.709 29.4502C103.888 29.7758 104.178 29.9384 104.557 29.9384C105.071 29.9384 105.428 29.6458 105.607 29.0601C105.807 28.4742 105.897 27.4979 105.919 26.1637L108.888 26.4241C108.91 26.6193 108.91 26.8797 108.91 27.2049C108.91 29.255 108.531 30.7847 107.749 31.7933C106.968 32.802 105.897 33.3227 104.49 33.3227C102.794 33.3227 101.611 32.5419 100.941 31.0125C100.271 29.4828 99.9143 27.0746 99.9143 23.8532V19.9155C99.99 14.3836 100.657 10.3321 104.58 10.3159ZM63.3045 10.7389V27.0423C63.3045 28.0186 63.3714 28.7346 63.5276 29.1576C63.8446 30.0622 64.6662 29.831 65.1126 29.3854C65.3703 29.1313 65.578 28.7837 65.7153 28.3768V10.7386H69.1307V32.9646H66.4519L66.1617 30.2311H66.0949C65.3583 32.2812 64.2642 33.3224 62.8134 33.3224C60.5802 33.3143 60.0337 30.9688 59.9036 28.5866L59.8951 28.4187C59.879 28.0578 59.8695 27.6965 59.8668 27.3349V10.7389H63.3045ZM80.9174 10.7389V27.0423C80.9174 28.0186 80.9842 28.7346 81.1405 29.1576C81.4577 30.0622 82.279 29.831 82.7255 29.3854C82.9831 29.1313 83.1909 28.7837 83.3282 28.3768V10.7386H86.7436V32.9646H84.0648L83.7746 30.2311H83.7077C82.9711 32.2812 81.8771 33.3224 80.4262 33.3224C78.193 33.3143 77.6465 30.9688 77.5165 28.5866L77.5079 28.4187C77.4918 28.0578 77.4824 27.6965 77.4796 27.3349V10.7389H80.9174ZM53.393 10.3159C54.5092 10.3159 55.4244 10.6412 56.0941 11.3246C56.7637 12.0079 57.2772 13.0494 57.5897 14.4811C57.9022 15.913 58.0585 17.8328 58.0585 20.2085V23.4299C58.0585 25.8056 57.9022 27.6931 57.5897 29.1247C57.2772 30.5569 56.786 31.5981 56.0941 32.2815C55.4022 32.9323 54.4644 33.2901 53.3038 33.2901C52.0982 33.3227 51.1606 32.9649 50.4687 32.3141C49.7768 31.6307 49.2855 30.5892 48.9955 29.1576C48.7051 27.7257 48.5712 25.8381 48.5712 23.4628V20.2408C48.5712 17.8651 48.7275 15.9127 49.0623 14.4808C49.3972 13.0166 49.9105 11.975 50.625 11.3246C51.3392 10.6734 52.2544 10.3156 53.393 10.3156M92.1012 1.39941V13.1143H92.1235C92.436 12.2683 92.8378 11.5849 93.396 11.0642C93.9172 10.5535 94.5313 10.2816 95.1593 10.2833C95.9854 10.2833 96.6104 10.6086 97.0792 11.2268C97.548 11.8779 97.8829 12.8865 98.0836 14.2859C98.2784 15.6414 98.3891 17.5162 98.3959 19.8804L98.3961 20.111V23.6254C98.3961 26.9119 98.106 29.3528 97.5701 30.9148C97.0123 32.4767 96.164 33.2579 95.0031 33.2579C94.3559 33.2579 93.7753 33.0301 93.2397 32.6071C92.766 32.2044 92.3733 31.6273 92.1007 30.9337L92.0565 30.817H91.9896L91.6324 32.9323H88.7973V1.39972L92.1012 1.39941ZM78.4393 2.53838V6.57317H75.0463V32.9646H71.6979V6.57348H68.2825V2.53869L78.4393 2.53838ZM41.6286 2.53838L41.6308 2.55079C41.6633 2.76214 42.1147 5.68714 42.6111 9.09504L42.6503 9.36504L42.7095 9.77314L42.7491 10.0472L42.7689 10.1847L42.8085 10.4602L42.8283 10.5983L42.8677 10.8749L42.9251 11.2792C43.2604 13.6391 43.5804 16.0058 43.7718 17.7028H43.8612C44.0445 16.1805 44.3108 14.2325 44.5948 12.2435L44.6693 11.724C44.7067 11.4637 44.7443 11.2038 44.7822 10.9444L44.8405 10.5419C45.2262 7.90605 45.6233 5.27386 46.0321 2.64545L46.0384 2.60355L46.0487 2.53838H49.4641L45.5128 23.0723V32.9323H42.1421V23.1046H42.1198L38.2132 2.53807L41.6286 2.53838ZM53.3259 13.7651C52.8571 13.7651 52.5446 14.1232 52.3438 14.8718C52.1431 15.6203 52.0537 16.759 52.0537 18.3539V25.2851C52.0537 26.9122 52.1429 28.1161 52.3215 28.8323C52.5002 29.5482 52.835 29.9061 53.3259 29.9061C53.7947 29.9061 54.1296 29.5482 54.3305 28.8323C54.5315 28.1161 54.6207 26.9122 54.6207 25.2851V18.3536C54.6207 16.759 54.5313 15.5874 54.3305 14.8715C54.1296 14.1232 53.7947 13.7651 53.3259 13.7651ZM92.7039 14.4162C92.4318 14.7824 92.2383 15.234 92.1231 15.7985L92.1012 15.913V28.5391C92.3779 29.2224 92.7709 29.678 93.4628 29.7106C93.8199 29.7106 94.1101 29.5154 94.3335 29.125C94.5567 28.7346 94.7128 28.0837 94.8021 27.1723C94.888 26.2978 94.9326 25.0932 94.936 23.5587V20.4689C94.936 18.7117 94.8913 17.3775 94.8245 16.4338C94.735 15.49 94.6237 14.8066 94.4227 14.4162C94.0342 13.6025 93.195 13.6124 92.7039 14.4162ZM104.513 13.6677C104.133 13.7001 103.865 13.8629 103.709 14.1558C103.531 14.4811 103.419 14.9692 103.352 15.6852C103.286 16.3866 103.264 18.8383 103.263 18.9364V20.534H105.763V19.1251V19.1521C105.761 19.6446 105.754 18.8662 105.739 17.9107L105.737 17.7822C105.723 16.9424 105.702 16.0061 105.674 15.6852C105.607 14.9367 105.495 14.4159 105.316 14.1232C105.138 13.8303 104.87 13.6677 104.513 13.6677" fill="#282828"/>
</g>
<defs>
<clipPath id="clip0_292_133">
<rect width="109" height="36" fill="white"/>
</clipPath>
</defs>
</svg>
